<?xml version="1.0" encoding="utf-8"?>
<!-- Generator: Adobe Illustrator 21.0.2, SVG Export Plug-In . SVG Version: 6.00 Build 0)  -->
<svg version="1.1" id="OBJECTS" xmlns="http://www.w3.org/2000/svg" xmlns:xlink="http://www.w3.org/1999/xlink" x="0px" y="0px"
	 viewBox="0 0 800 412.8" style="enable-background:new 0 0 800 412.8;" xml:space="preserve">
<style type="text/css">
	.st0{fill:#4CDEE5;}
	.st1{fill:#C9C9C9;}
	.st2{opacity:0.3;}
	.st3{fill:#B3B3B3;}
	.st4{fill:#717277;}
	.st5{fill:#277A20;}
	.st6{fill:#D6C994;}
	.st7{fill:#B7B08E;}
	.st8{opacity:0.4;fill:none;stroke:#F2EFE4;stroke-width:2.5;stroke-miterlimit:10;}
	.st9{opacity:0.4;fill:none;stroke:#CBC8BF;stroke-width:2.5;stroke-miterlimit:10;}
	.st10{opacity:0.4;fill:none;stroke:#F2EFE4;stroke-miterlimit:10;}
	.st11{opacity:0.4;fill:none;stroke:#CBC8BF;stroke-miterlimit:10;}
	.st12{fill:none;stroke:#CBC8BF;stroke-miterlimit:10;}
	.st13{fill:#676B70;}
	.st14{fill:#7A8B93;}
	.st15{fill:#406C75;}
	.st16{fill:#558E9B;}
	.st17{fill:#517C89;}
	.st18{opacity:0.13;}
	.st19{opacity:0.16;}
	.st20{fill:#B0BBC4;}
	.st21{opacity:0.5;}
	.st22{fill:#FFFFFF;}
	.st23{fill:#C19E76;}
	.st24{fill:#DEB587;}
	.st25{fill:#625961;}
	.st26{fill:#726871;}
	.st27{fill:#443E44;}
	.st28{fill:#544D53;}
	.st29{fill:#A7373E;}
	.st30{fill:#E48082;}
	.st31{opacity:0.15;}
	.st32{fill:#5B3939;}
	.st33{fill:none;stroke:#D4E5E6;stroke-width:1.5;stroke-linecap:round;stroke-miterlimit:10;}
	.st34{fill:#422A2A;}
	.st35{fill:none;stroke:#D4E5E6;stroke-width:0.75;stroke-linecap:round;stroke-miterlimit:10;}
	.st36{fill:#D4E5E6;}
	.st37{fill:none;stroke:#FFFFFF;stroke-width:2;stroke-linecap:round;stroke-miterlimit:10;}
	.st38{fill:#E1DAAA;}
	.st39{fill:#FEF8D2;}
	.st40{fill:#67615B;}
	.st41{opacity:0.63;}
	.st42{fill:#E2CB85;}
	.st43{fill:#B76959;}
	.st44{fill:#8F5145;}
	.st45{opacity:0.2;}
	.st46{fill:none;stroke:#FCEFD0;stroke-miterlimit:10;}
	.st47{fill:#FCEFD0;}
	.st48{fill:#286024;}
	.st49{opacity:0.55;}
	.st50{fill:#C4AD7C;}
	.st51{fill:#EEE3C7;}
	.st52{fill:#D5B88A;}
	.st53{fill:#866D58;}
	.st54{fill:#84453A;}
	.st55{fill:#6A372E;}
	.st56{opacity:0.3;fill:#383137;}
	.st57{fill:none;stroke:#866D58;stroke-miterlimit:10;}
	.st58{fill:none;stroke:#FFFFFF;stroke-width:2;stroke-miterlimit:10;stroke-dasharray:5;}
	.st59{fill:#F39B80;}
	.st60{opacity:0.21;}
	.st61{fill:#9CACA1;}
	.st62{opacity:0.43;}
	.st63{fill:none;stroke:#FFFFFF;stroke-miterlimit:10;}
	.st64{fill:#543C36;}
	.st65{fill:none;stroke:#543C36;stroke-width:4;stroke-linecap:square;stroke-miterlimit:10;}
	.st66{fill:#1F7E17;}
	.st67{fill:#3D2626;}
	.st68{fill:#269C1C;}
	.st69{fill:#F08F24;}
	.st70{fill:none;stroke:#604123;stroke-width:4;stroke-linecap:round;stroke-miterlimit:10;}
	.st71{fill:#FFA440;}
	.st72{fill:#9AB6B8;}
	.st73{fill:#604123;}
	.st74{fill:none;stroke:#604123;stroke-width:4;stroke-linecap:square;stroke-miterlimit:10;}
	.st75{fill:#4983B3;}
	.st76{fill:none;stroke:#2D5977;stroke-width:5;stroke-linecap:square;stroke-miterlimit:10;}
	.st77{fill:none;stroke:#2D5977;stroke-width:2;stroke-linecap:square;stroke-miterlimit:10;}
	.st78{fill:#336D9E;}
	.st79{fill:#2D5977;}
	.st80{fill:none;stroke:#2D5977;stroke-linecap:square;stroke-miterlimit:10;}
</style>
<g>
	<rect x="-5" class="st0" width="810" height="412.8"/>
	<rect x="-5" y="322.4" class="st1" width="810" height="90.3"/>
	<g id="XMLID_836_">
		<g class="st2">
			<polygon id="XMLID_2_" points="784,217.3 784,311.8 800,311.8 800,225.3 			"/>
			<polygon id="XMLID_3_" points="754,232.9 743.8,231.8 699.9,232.8 699.9,166.8 699.9,165.5 699.9,155.2 692,155.2 692,114.9 
				687.9,114.9 687.9,155.2 680,155.2 680,165.5 660.1,165.5 660.1,311.8 692,311.8 694.7,311.8 698.2,311.8 699.9,311.8 
				714.4,311.8 743.8,311.8 755.2,311.8 755.2,311.8 784,311.8 784,217.3 754,217.3 			"/>
			<polygon id="XMLID_4_" points="0,313 12.8,313 12.8,252.5 0,257.6 			"/>
			<polygon id="XMLID_5_" points="27.6,252.5 12.8,252.5 12.8,313 27.6,313 38.4,313 39.7,313 39.7,241.5 27.6,247.6 			"/>
			<path id="XMLID_6_" d="M99.2,190.9l-16.6-24.4c0.8-0.2,1.5-1,1.5-1.9c0-1.1-0.9-1.9-1.9-1.9h-0.4v-16.6h-2.6v16.6h-0.2
				c-1.1,0-1.9,0.9-1.9,1.9c0,0.9,0.7,1.7,1.6,1.9l-14.4,24.4v50.6H39.7V313h24.5h3.8h0v-2.5h3.2v2.5h2.1v-2.5h3.2v2.5h2.4v-2.5h3.2
				v2.5h4.7H93h6.1h4.1v-60.5l-4.1,2.1V190.9z"/>
			<polygon id="XMLID_7_" points="135.3,252.5 122.5,257.6 122.5,252.5 103.3,252.5 103.3,313 122.5,313 122.5,313 135.3,313 
				160.9,313 160.9,252.5 135.3,252.5 			"/>
			<polygon id="XMLID_8_" points="496,151 345,151 345,318 468,318 468,322 572,322 572,206 496,206 			"/>
			<rect id="XMLID_9_" x="596" y="186" width="51" height="133"/>
		</g>
		<g>
			<rect x="634.7" y="207.2" class="st3" width="26.8" height="104.5"/>
			<rect x="637.9" y="210.7" class="st4" width="20.4" height="9.5"/>
			<rect x="637.9" y="223.6" class="st4" width="20.4" height="9.5"/>
			<rect x="637.9" y="236.5" class="st4" width="20.4" height="9.5"/>
			<rect x="637.9" y="249.4" class="st4" width="20.4" height="9.5"/>
			<rect x="637.9" y="261.3" class="st4" width="20.4" height="9.5"/>
			<rect x="637.9" y="274.2" class="st4" width="20.4" height="9.5"/>
			<rect x="637.9" y="287.1" class="st4" width="20.4" height="9.5"/>
			<rect x="637.9" y="300.1" class="st4" width="20.4" height="9.5"/>
			<polygon id="XMLID_10_" class="st4" points="668.5,311.7 661.5,311.7 661.5,207.2 668.5,210.2 			"/>
		</g>
		<rect y="310.7" class="st5" width="801.9" height="11.8"/>
		<g>
			<g id="XMLID_11_">
				<rect x="114.3" y="89.9" class="st6" width="75.4" height="219"/>
				<rect x="189.7" y="89.9" class="st7" width="29.7" height="219"/>
			</g>
			<g id="XMLID_12_">
				<line id="XMLID_13_" class="st8" x1="121.6" y1="84.5" x2="121.6" y2="309"/>
				<line id="XMLID_14_" class="st8" x1="131.6" y1="84.5" x2="131.6" y2="309"/>
				<line id="XMLID_15_" class="st8" x1="141.6" y1="84.5" x2="141.6" y2="309"/>
				<line id="XMLID_16_" class="st8" x1="151.7" y1="84.5" x2="151.7" y2="309"/>
				<line id="XMLID_17_" class="st8" x1="161.7" y1="84.5" x2="161.7" y2="309"/>
				<line id="XMLID_18_" class="st8" x1="171.8" y1="84.5" x2="171.8" y2="309"/>
				<line id="XMLID_19_" class="st8" x1="181.8" y1="84.5" x2="181.8" y2="309"/>
			</g>
			<g id="XMLID_20_">
				<line id="XMLID_21_" class="st9" x1="194.4" y1="84.5" x2="194.4" y2="309"/>
				<line id="XMLID_22_" class="st9" x1="204.4" y1="84.5" x2="204.4" y2="309"/>
				<line id="XMLID_23_" class="st9" x1="214.5" y1="84.5" x2="214.5" y2="309"/>
			</g>
			<g id="XMLID_24_">
				<line id="XMLID_25_" class="st10" x1="114.3" y1="105.2" x2="189.7" y2="105.2"/>
				<line id="XMLID_26_" class="st10" x1="114.3" y1="128.7" x2="189.7" y2="128.7"/>
				<line id="XMLID_27_" class="st10" x1="114.3" y1="152.1" x2="189.7" y2="152.1"/>
				<line id="XMLID_28_" class="st10" x1="114.3" y1="175.5" x2="189.7" y2="175.5"/>
				<line id="XMLID_29_" class="st10" x1="114.3" y1="199" x2="189.7" y2="199"/>
				<line id="XMLID_30_" class="st10" x1="114.3" y1="222.4" x2="189.7" y2="222.4"/>
				<line id="XMLID_31_" class="st10" x1="114.3" y1="245.8" x2="189.7" y2="245.8"/>
				<line id="XMLID_32_" class="st10" x1="114.3" y1="269.3" x2="189.7" y2="269.3"/>
				<line id="XMLID_33_" class="st10" x1="114.3" y1="292.7" x2="189.7" y2="292.7"/>
			</g>
			<g id="XMLID_34_">
				<line id="XMLID_35_" class="st11" x1="219.3" y1="105.2" x2="189.7" y2="105.2"/>
				<line id="XMLID_36_" class="st11" x1="219.3" y1="128.7" x2="189.7" y2="128.7"/>
				<line id="XMLID_37_" class="st11" x1="219.3" y1="152.1" x2="189.7" y2="152.1"/>
				<line id="XMLID_38_" class="st11" x1="219.3" y1="175.5" x2="189.7" y2="175.5"/>
				<line id="XMLID_39_" class="st11" x1="219.3" y1="199" x2="189.7" y2="199"/>
				<line id="XMLID_40_" class="st11" x1="219.3" y1="222.4" x2="189.7" y2="222.4"/>
				<line id="XMLID_41_" class="st11" x1="219.3" y1="245.8" x2="189.7" y2="245.8"/>
				<line id="XMLID_42_" class="st12" x1="219.3" y1="269.3" x2="189.7" y2="269.3"/>
				<line id="XMLID_43_" class="st12" x1="219.3" y1="292.7" x2="189.7" y2="292.7"/>
			</g>
		</g>
		<g>
			<rect x="185.6" y="156.3" class="st13" width="75.3" height="156.9"/>
			<path id="XMLID_44_" class="st14" d="M221.3,151.9v-6.8h-23.6v6.8h-16v170.5h79.4V151.9H221.3z M193.8,204.3h-5.1v-5.1h5.1V204.3
				z M193.8,194.2h-5.1v-5.1h5.1V194.2z M193.8,184h-5.1V179h5.1V184z M193.8,173.9h-5.1v-5.1h5.1V173.9z M193.8,163.8h-5.1v-5.1
				h5.1V163.8z M203.9,313.2h-5.1v-98.8h5.1V313.2z M203.9,204.3h-5.1v-5.1h5.1V204.3z M203.9,194.2h-5.1v-5.1h5.1V194.2z
				 M203.9,184h-5.1V179h5.1V184z M203.9,173.9h-5.1v-5.1h5.1V173.9z M203.9,163.8h-5.1v-5.1h5.1V163.8z M214.1,313.2H209v-98.8h5.1
				V313.2z M214.1,204.3H209v-5.1h5.1V204.3z M214.1,194.2H209v-5.1h5.1V194.2z M214.1,184H209V179h5.1V184z M214.1,173.9H209v-5.1
				h5.1V173.9z M214.1,163.8H209v-5.1h5.1V163.8z M224.2,313.2h-5.1v-98.8h5.1V313.2z M224.2,204.3h-5.1v-5.1h5.1V204.3z
				 M224.2,194.2h-5.1v-5.1h5.1V194.2z M224.2,184h-5.1V179h5.1V184z M224.2,173.9h-5.1v-5.1h5.1V173.9z M224.2,163.8h-5.1v-5.1h5.1
				V163.8z M234.3,204.3h-5.1v-5.1h5.1V204.3z M234.3,194.2h-5.1v-5.1h5.1V194.2z M234.3,184h-5.1V179h5.1V184z M234.3,173.9h-5.1
				v-5.1h5.1V173.9z M234.3,163.8h-5.1v-5.1h5.1V163.8z M244.5,204.3h-5.1v-5.1h5.1V204.3z M244.5,194.2h-5.1v-5.1h5.1V194.2z
				 M244.5,184h-5.1V179h5.1V184z M244.5,173.9h-5.1v-5.1h5.1V173.9z M244.5,163.8h-5.1v-5.1h5.1V163.8z M254.6,204.3h-5.1v-5.1h5.1
				V204.3z M254.6,194.2h-5.1v-5.1h5.1V194.2z M254.6,184h-5.1V179h5.1V184z M254.6,173.9h-5.1v-5.1h5.1V173.9z M254.6,163.8h-5.1
				v-5.1h5.1V163.8z"/>
		</g>
		<g>
			<rect x="302.3" y="81.9" class="st15" width="38.9" height="54.2"/>
			<rect x="288.9" y="113.8" class="st16" width="26.8" height="208.7"/>
			<rect x="308.6" y="104.3" class="st17" width="47.2" height="218.2"/>
			<rect x="313.1" y="104.3" class="st18" width="3.2" height="218.2"/>
			<rect x="320" y="104.3" class="st18" width="3.2" height="218.2"/>
			<rect x="326.9" y="104.3" class="st18" width="3.2" height="218.2"/>
			<rect x="292.3" y="113.8" class="st18" width="2.5" height="170"/>
			<rect x="297.7" y="113.8" class="st18" width="2.5" height="170"/>
			<rect x="303" y="113.8" class="st18" width="2.5" height="170"/>
			<rect x="333.8" y="104.3" class="st18" width="3.2" height="218.2"/>
			<rect x="340.7" y="104.3" class="st18" width="3.2" height="218.2"/>
			<rect x="347.6" y="104.3" class="st18" width="3.2" height="218.2"/>
		</g>
		<rect x="221.3" y="151.9" class="st19" width="37" height="170.8"/>
		<g>
			<polygon id="XMLID_84_" class="st13" points="295.8,189.6 295.8,117.2 284.8,117.2 284.8,69.8 258.3,69.8 258.3,117.2 
				248.2,117.2 248.2,189.6 239.7,189.6 239.7,286.3 305.1,286.3 305.1,189.6 			"/>
			<path id="XMLID_85_" class="st20" d="M297.1,184.3V115h-9.6V64.6h-10.4V6.5h-3.4v58.1H267V14.9h-3.4v49.7H256V115H245v69.3h-9.7
				v138.6h71.4V184.3H297.1z M246.6,276.7h-5v-85.3h5V276.7z M255,276.7h-5v-85.3h5V276.7z M255,182.6h-5v-63.4h5V182.6z
				 M263.4,276.7h-5v-47.9h5V276.7z M268,178.4h-5v-5h5V178.4z M268,170h-5v-5h5V170z M276.4,272.5h-5v-5h5V272.5z M276.4,264.1h-5
				v-5h5V264.1z M276.4,255.7h-5v-5h5V255.7z M276.4,247.3h-5v-5h5V247.3z M276.6,178.4h-5v-5h5V178.4z M276.6,170h-5v-5h5V170z
				 M276.6,161.6h-5v-5h5V161.6z M276.6,81h-5v-5h5V81z M279.8,92.8h5v5h-5V92.8z M279.8,101.2h5v5h-5V101.2z M279.8,109.6h5v5h-5
				V109.6z M279.8,123h5v5h-5V123z M279.8,131.4h5v5h-5V131.4z M279.8,139.8h5v5h-5V139.8z M279.8,148.2h5v5h-5V148.2z M279.8,156.6
				h5v5h-5V156.6z M279.8,165h5v5h-5V165z M279.8,173.4h5v5h-5V173.4z M285,272.5h-5v-5h5V272.5z M285,264.1h-5v-5h5V264.1z
				 M285,255.7h-5v-5h5V255.7z M285,247.3h-5v-5h5V247.3z M293.2,272.5h-5v-5h5V272.5z M293.2,264.1h-5v-5h5V264.1z M293.2,255.7h-5
				v-5h5V255.7z M293.2,247.3h-5v-5h5V247.3z M293.2,238.9h-5v-5h5V238.9z M293.2,230.5h-5v-5h5V230.5z M293.2,222.1h-5v-5h5V222.1z
				 M293.2,213.7h-5v-5h5V213.7z M293.2,205.3h-5v-5h5V205.3z M293.2,196.9h-5v-5h5V196.9z M293.4,178.4h-5v-5h5V178.4z M293.4,170
				h-5v-5h5V170z M293.4,161.6h-5v-5h5V161.6z M293.4,153.2h-5v-5h5V153.2z M293.4,144.8h-5v-5h5V144.8z M293.4,136.4h-5v-5h5V136.4
				z M293.4,128h-5v-5h5V128z M301.8,272.5h-5v-5h5V272.5z M301.8,264.1h-5v-5h5V264.1z M301.8,255.7h-5v-5h5V255.7z M301.8,247.3
				h-5v-5h5V247.3z M301.8,238.9h-5v-5h5V238.9z M301.8,230.5h-5v-5h5V230.5z M301.8,222.1h-5v-5h5V222.1z M301.8,213.7h-5v-5h5
				V213.7z M301.8,205.3h-5v-5h5V205.3z M301.8,196.9h-5v-5h5V196.9z"/>
			<rect x="232.2" y="307.4" class="st13" width="78.4" height="15.5"/>
			<rect x="245" y="115" class="st2" width="52.1" height="69.3"/>
			<rect x="256" y="64.6" class="st21" width="31.5" height="50.4"/>
		</g>
		<g>
			<rect x="482.7" y="153.8" class="st22" width="46.9" height="144.9"/>
			<polygon class="st23" points="556.1,305.6 529.3,305.6 529.3,147.2 556.1,160.6 			"/>
			<path id="XMLID_142_" class="st24" d="M479,147.2v158.5h50.3V147.2H479z M512.1,292.5h8.1v8.1h-8.1V292.5z M512.1,279h8.1v8.1
				h-8.1V279z M512.1,265.5h8.1v8.1h-8.1V265.5z M512.1,252.1h8.1v8.1h-8.1V252.1z M512.1,238.8h8.1v8.1h-8.1V238.8z M512.1,225.3
				h8.1v8.1h-8.1V225.3z M512.1,211.9h8.1v8.1h-8.1V211.9z M512.1,198.4h8.1v8.1h-8.1V198.4z M512.1,184.9h8.1v8.1h-8.1V184.9z
				 M512.1,171.5h8.1v8.1h-8.1V171.5z M512.1,158h8.1v8.1h-8.1V158z M498.3,292.5h8.1v8.1h-8.1V292.5z M498.3,279h8.1v8.1h-8.1V279z
				 M498.3,265.5h8.1v8.1h-8.1V265.5z M498.3,252.1h8.1v8.1h-8.1V252.1z M498.3,238.8h8.1v8.1h-8.1V238.8z M498.3,225.3h8.1v8.1
				h-8.1V225.3z M498.3,211.9h8.1v8.1h-8.1V211.9z M498.3,198.4h8.1v8.1h-8.1V198.4z M498.3,184.9h8.1v8.1h-8.1V184.9z M498.3,171.5
				h8.1v8.1h-8.1V171.5z M498.3,158h8.1v8.1h-8.1V158z M484.9,292.5h8.1v8.1h-8.1V292.5z M484.9,279h8.1v8.1h-8.1V279z M484.9,265.5
				h8.1v8.1h-8.1V265.5z M484.9,252.1h8.1v8.1h-8.1V252.1z M484.9,238.8h8.1v8.1h-8.1V238.8z M484.9,225.3h8.1v8.1h-8.1V225.3z
				 M484.9,211.9h8.1v8.1h-8.1V211.9z M484.9,198.4h8.1v8.1h-8.1V198.4z M484.9,184.9h8.1v8.1h-8.1V184.9z M484.9,171.5h8.1v8.1
				h-8.1V171.5z M484.9,158h8.1v8.1h-8.1V158z"/>
		</g>
		<g>
			<polygon id="XMLID_177_" class="st25" points="451.8,287.3 471.3,287.4 471.3,198 451.8,195.4 			"/>
			<polygon id="XMLID_178_" class="st26" points="451.8,287.3 411.5,287.3 411.5,197.9 451.8,195.4 			"/>
			<polygon id="XMLID_179_" class="st27" points="453.6,322.8 478.6,322.9 478.6,208.4 453.6,205.1 			"/>
			<polygon id="XMLID_180_" class="st28" points="453.6,322.8 402,322.8 402,208.3 453.6,205.1 			"/>
			<polygon id="XMLID_181_" class="st27" points="411.5,324.5 408,324.8 408,213.4 411.5,213.1 			"/>
			<polygon id="XMLID_182_" class="st27" points="418.5,324 415,324.2 415,212.9 418.5,212.6 			"/>
			<polygon id="XMLID_183_" class="st27" points="425.5,323.5 422,323.7 422,212.4 425.5,212.1 			"/>
			<polygon id="XMLID_184_" class="st27" points="432.5,322.9 429,323.2 429,211.8 432.5,211.6 			"/>
			<polygon id="XMLID_185_" class="st27" points="439.5,322.4 436,322.7 436,211.3 439.5,211.1 			"/>
			<polygon id="XMLID_186_" class="st27" points="446.5,321.9 443,322.2 443,210.8 446.5,210.5 			"/>
		</g>
		<g>
			<polygon id="XMLID_187_" class="st29" points="616,230 616,183.3 581.5,183.3 581.5,230 572.3,230 572.3,282 624.4,282 
				624.4,230 			"/>
			<path id="XMLID_188_" class="st30" d="M617.8,227.9v-46.4c-4.3-0.7-9-4.2-12.1-9.6c-1-1.8-1.8-3.7-2.3-5.5h-11
				c-0.5,2-1.3,3.9-2.4,5.9c-3,5.2-7.5,8.6-11.7,9.5v46.2H571v94.5h54.2v-94.5H617.8z M584.8,265.9c-3.6,0-6.4,0-9.6,0v-10.2
				c0-2.7,2.2-4.9,4.9-4.9c2.6,0,4.7,2.1,4.7,4.7V265.9z M584.8,247.5c-3.2,0-6,0-9.6,0v-10.3c0-2.7,2.2-4.9,4.9-4.9
				c2.6,0,4.7,2.1,4.7,4.7V247.5z M613.3,194.1 M597.3,265.9c-3.6,0-6.4,0-9.6,0v-10.3c0-2.7,2.2-4.8,4.8-4.8c2.6,0,4.8,2.1,4.8,4.8
				V265.9z M597.3,247.5c-3.2,0-6,0-9.6,0v-10.3c0-2.7,2.2-4.8,4.8-4.8c2.6,0,4.8,2.1,4.8,4.8V247.5z M609.8,265.9
				c-3.6,0-6.4,0-9.6,0v-10.2c0-2.7,2.2-4.9,4.9-4.9c2.6,0,4.7,2.1,4.7,4.7V265.9z M609.8,247.5c-3.2,0-6,0-9.6,0v-10.3
				c0-2.7,2.2-4.8,4.8-4.8c2.6,0,4.8,2.1,4.8,4.8V247.5z M622.3,265.9c-3.6,0-6.4,0-9.6,0v-10.2c0-2.7,2.2-4.9,4.9-4.9
				c2.6,0,4.7,2.1,4.7,4.7V265.9z M622.3,247.5c-3.2,0-6,0-9.6,0v-10.3c0-2.7,2.2-4.8,4.8-4.8c2.6,0,4.8,2.1,4.8,4.8V247.5z"/>
			<path id="XMLID_195_" class="st31" d="M607.5,174.5c-0.6-0.8-1.3-1.7-1.8-2.7c-1-1.8-1.8-3.7-2.3-5.5h-11c-0.5,2-1.3,3.9-2.4,5.9
				c-0.5,0.8-1,1.6-1.5,2.3H607.5z"/>
			<path class="st30" d="M599.3,158.5c-0.3-0.4-0.7-0.7-1.2-0.7h0c-0.5,0-1,0.3-1.3,0.7c-2.1,3.4-6.2,6.5-6.2,9c0,1,0.3,2,0.8,2.8
				c0,0,0,0,0,0h13.3c0.5-0.8,0.8-1.8,0.8-2.8C605.6,165,601.5,161.9,599.3,158.5z"/>
			<rect x="571" y="273.8" class="st31" width="54.2" height="42.6"/>
			<rect x="571" y="273.8" class="st31" width="54.2" height="3.3"/>
			<g id="XMLID_208_">
				<path class="st32" d="M611.6,292.4c0-7.7-6.3-14-14-14c-7.7,0-14,6.3-14,14v30h28V292.4z"/>
				<g id="XMLID_211_">
					<line id="XMLID_214_" class="st33" x1="594.3" y1="297.9" x2="594.3" y2="302.9"/>
					<line id="XMLID_215_" class="st33" x1="600.9" y1="297.9" x2="600.9" y2="302.9"/>
				</g>
				<path id="XMLID_216_" class="st34" d="M597.6,278.4c-0.3,0-0.6,0-0.9,0v43.9h1.9v-43.9C598.2,278.4,597.9,278.4,597.6,278.4z"/>
			</g>
			<rect x="566.3" y="316.5" class="st30" width="63.4" height="5.9"/>
			<rect x="568.9" y="226.2" class="st32" width="57.7" height="1.7"/>
			<g id="XMLID_217_">
				<path class="st35" d="M584.7,237c0-2.6-2.1-4.7-4.7-4.7c-2.6,0-4.7,2.1-4.7,4.7v10.5h9.4V237z"/>
				<line id="XMLID_218_" class="st35" x1="580" y1="232.3" x2="580" y2="247.5"/>
				<line id="XMLID_221_" class="st35" x1="575.2" y1="242.8" x2="584.6" y2="242.8"/>
				<line id="XMLID_222_" class="st35" x1="575.2" y1="238.5" x2="584.6" y2="238.5"/>
			</g>
			<g id="XMLID_223_">
				<path class="st35" d="M597.2,237c0-2.6-2.1-4.7-4.7-4.7c-2.6,0-4.7,2.1-4.7,4.7v10.5h9.4V237z"/>
				<line id="XMLID_224_" class="st35" x1="592.5" y1="232.4" x2="592.5" y2="247.5"/>
				<line id="XMLID_227_" class="st35" x1="587.7" y1="242.9" x2="597.1" y2="242.9"/>
				<line id="XMLID_228_" class="st35" x1="587.7" y1="238.5" x2="597.1" y2="238.5"/>
			</g>
			<g id="XMLID_229_">
				<path id="XMLID_230_" class="st29" d="M590.3,208.2c-2.2,0-4,1.8-4,4v8.5h8.1v-8.5C594.4,210,592.5,208.2,590.3,208.2z"/>
				<path id="XMLID_232_" class="st29" d="M605.9,208.2c-2.2,0-4,1.8-4,4v8.5h8.1v-8.5C610,210,608.1,208.2,605.9,208.2z"/>
				<path id="XMLID_234_" class="st29" d="M590.5,190.3c-2.2,0-4,1.8-4,4v8.5h8.1v-8.5C594.6,192.1,592.8,190.3,590.5,190.3z"/>
				<path id="XMLID_236_" class="st29" d="M606.1,190.3c-2.2,0-4,1.8-4,4v8.5h8.1v-8.5C610.2,192.1,608.4,190.3,606.1,190.3z"/>
			</g>
			<g id="XMLID_238_">
				<path class="st35" d="M594,212.3c0-2-1.6-3.7-3.7-3.7c-2,0-3.7,1.6-3.7,3.7v8.1h7.3V212.3z"/>
				<line id="XMLID_239_" class="st35" x1="590.3" y1="208.7" x2="590.3" y2="220.4"/>
				<line id="XMLID_242_" class="st35" x1="586.6" y1="216.8" x2="593.9" y2="216.8"/>
				<line id="XMLID_243_" class="st35" x1="586.6" y1="213.4" x2="593.9" y2="213.4"/>
			</g>
			<g id="XMLID_244_">
				<path class="st35" d="M609.6,212.3c0-2-1.6-3.7-3.7-3.7s-3.7,1.6-3.7,3.7v8.1h7.3V212.3z"/>
				<line id="XMLID_245_" class="st35" x1="605.9" y1="208.7" x2="605.9" y2="220.4"/>
				<line id="XMLID_248_" class="st35" x1="602.2" y1="216.8" x2="609.5" y2="216.8"/>
				<line id="XMLID_249_" class="st35" x1="602.2" y1="213.4" x2="609.5" y2="213.4"/>
			</g>
			<g id="XMLID_250_">
				<path class="st35" d="M594.2,194.3c0-2-1.6-3.7-3.7-3.7c-2,0-3.7,1.6-3.7,3.7v8.1h7.3V194.3z"/>
				<line id="XMLID_251_" class="st35" x1="590.5" y1="190.7" x2="590.5" y2="202.5"/>
				<line id="XMLID_254_" class="st35" x1="586.8" y1="198.9" x2="594.1" y2="198.9"/>
				<line id="XMLID_255_" class="st35" x1="586.8" y1="195.5" x2="594.1" y2="195.5"/>
			</g>
			<g id="XMLID_256_">
				<path class="st35" d="M609.8,194.3c0-2-1.6-3.7-3.7-3.7c-2,0-3.7,1.6-3.7,3.7v8.1h7.3V194.3z"/>
				<line id="XMLID_257_" class="st35" x1="606.1" y1="190.7" x2="606.1" y2="202.5"/>
				<line id="XMLID_260_" class="st35" x1="602.4" y1="198.9" x2="609.7" y2="198.9"/>
				<line id="XMLID_261_" class="st35" x1="602.4" y1="195.5" x2="609.7" y2="195.5"/>
			</g>
			<g id="XMLID_262_">
				<path class="st35" d="M609.7,237c0-2.6-2.1-4.7-4.7-4.7c-2.6,0-4.7,2.1-4.7,4.7v10.5h9.4V237z"/>
				<line id="XMLID_263_" class="st35" x1="605" y1="232.3" x2="605" y2="247.5"/>
				<line id="XMLID_266_" class="st35" x1="600.2" y1="242.8" x2="609.6" y2="242.8"/>
				<line id="XMLID_267_" class="st35" x1="600.2" y1="238.5" x2="609.6" y2="238.5"/>
			</g>
			<g id="XMLID_268_">
				<path class="st35" d="M622.2,237.1c0-2.6-2.1-4.7-4.7-4.7s-4.7,2.1-4.7,4.7v10.5h9.4V237.1z"/>
				<line id="XMLID_269_" class="st35" x1="617.5" y1="232.4" x2="617.5" y2="247.5"/>
				<line id="XMLID_272_" class="st35" x1="612.7" y1="242.9" x2="622.1" y2="242.9"/>
				<line id="XMLID_273_" class="st35" x1="612.7" y1="238.5" x2="622.1" y2="238.5"/>
			</g>
			<g id="XMLID_274_">
				<path class="st35" d="M584.8,255.4c0-2.6-2.1-4.7-4.7-4.7c-2.6,0-4.7,2.1-4.7,4.7v10.5h9.4V255.4z"/>
				<line id="XMLID_275_" class="st35" x1="580.1" y1="250.8" x2="580.1" y2="265.9"/>
				<line id="XMLID_278_" class="st35" x1="575.3" y1="261.3" x2="584.7" y2="261.3"/>
				<line id="XMLID_279_" class="st35" x1="575.3" y1="256.9" x2="584.7" y2="256.9"/>
			</g>
			<g id="XMLID_280_">
				<path class="st35" d="M597.2,255.4c0-2.6-2.1-4.7-4.7-4.7c-2.6,0-4.7,2.1-4.7,4.7v10.5h9.4V255.4z"/>
				<line id="XMLID_281_" class="st35" x1="592.5" y1="250.8" x2="592.5" y2="265.9"/>
				<line id="XMLID_284_" class="st35" x1="587.7" y1="261.3" x2="597.2" y2="261.3"/>
				<line id="XMLID_285_" class="st35" x1="587.7" y1="256.9" x2="597.2" y2="256.9"/>
			</g>
			<g id="XMLID_286_">
				<path class="st35" d="M609.8,255.4c0-2.6-2.1-4.7-4.7-4.7c-2.6,0-4.7,2.1-4.7,4.7v10.5h9.4V255.4z"/>
				<line id="XMLID_287_" class="st35" x1="605" y1="250.8" x2="605" y2="265.9"/>
				<line id="XMLID_290_" class="st35" x1="600.3" y1="261.3" x2="609.7" y2="261.3"/>
				<line id="XMLID_291_" class="st35" x1="600.3" y1="256.9" x2="609.7" y2="256.9"/>
			</g>
			<g id="XMLID_292_">
				<path class="st35" d="M622.3,255.5c0-2.6-2.1-4.7-4.7-4.7c-2.6,0-4.7,2.1-4.7,4.7V266h9.4V255.5z"/>
				<line id="XMLID_293_" class="st35" x1="617.6" y1="250.8" x2="617.6" y2="266"/>
				<line id="XMLID_296_" class="st35" x1="612.8" y1="261.3" x2="622.2" y2="261.3"/>
				<line id="XMLID_297_" class="st35" x1="612.8" y1="257" x2="622.2" y2="257"/>
			</g>
			<rect x="568.9" y="268.8" class="st36" width="57.7" height="5"/>
			
				<rect x="552.5" y="200.1" transform="matrix(-1.836970e-16 1 -1 -1.836970e-16 778.7231 -375.1323)" class="st22" width="48.8" height="3.3"/>
			<rect x="578.3" y="222.2" class="st31" width="39.5" height="5.6"/>
			<rect x="575.2" y="185.9" class="st31" width="46" height="2.9"/>
			<circle id="XMLID_298_" class="st22" cx="576.9" cy="177.4" r="3.1"/>
			
				<rect x="594.9" y="200.1" transform="matrix(-1.836970e-16 1 -1 -1.836970e-16 821.0283 -417.4375)" class="st22" width="48.8" height="3.3"/>
			<circle id="XMLID_299_" class="st22" cx="619.2" cy="177.4" r="3.1"/>
			<line id="XMLID_300_" class="st37" x1="591.2" y1="169.9" x2="604.7" y2="169.9"/>
			<rect x="573.9" y="182.2" class="st32" width="48.3" height="3.8"/>
		</g>
		<g>
			<rect x="471.3" y="254" class="st38" width="92" height="68.5"/>
			<rect x="471.3" y="272.2" class="st39" width="91.6" height="50.2"/>
			<rect x="471.3" y="261" class="st39" width="91.6" height="5.1"/>
			<g id="XMLID_301_">
				<rect x="483.4" y="278.3" class="st40" width="5.1" height="10.7"/>
				<rect x="492.4" y="278.3" class="st40" width="5.1" height="10.7"/>
				<rect x="501.5" y="278.3" class="st40" width="5.1" height="10.7"/>
				<rect x="510.6" y="278.3" class="st40" width="5.1" height="10.7"/>
				<rect x="519.7" y="278.3" class="st40" width="5.1" height="10.7"/>
				<rect x="528.7" y="278.3" class="st40" width="5.1" height="10.7"/>
				<rect x="537.8" y="278.3" class="st40" width="5.1" height="10.7"/>
				<rect x="546.9" y="278.3" class="st40" width="5.1" height="10.7"/>
				<rect x="483.4" y="291.6" class="st40" width="5.1" height="10.7"/>
				<rect x="492.4" y="291.6" class="st40" width="5.1" height="10.7"/>
				<rect x="501.5" y="291.6" class="st40" width="5.1" height="10.7"/>
				<rect x="510.6" y="291.6" class="st40" width="5.1" height="10.7"/>
				<rect x="519.7" y="291.6" class="st40" width="5.1" height="10.7"/>
				<rect x="528.7" y="291.6" class="st40" width="5.1" height="10.7"/>
				<rect x="537.8" y="291.6" class="st40" width="5.1" height="10.7"/>
				<rect x="546.9" y="291.6" class="st40" width="5.1" height="10.7"/>
				<rect x="483.4" y="304.9" class="st40" width="5.1" height="10.7"/>
				<rect x="492.4" y="304.9" class="st40" width="5.1" height="10.7"/>
				<rect x="501.5" y="304.9" class="st40" width="5.1" height="10.7"/>
				<rect x="510.6" y="304.9" class="st40" width="5.1" height="10.7"/>
				<rect x="519.7" y="304.9" class="st40" width="5.1" height="10.7"/>
				<rect x="528.7" y="304.9" class="st40" width="5.1" height="10.7"/>
				<rect x="537.8" y="304.9" class="st40" width="5.1" height="10.7"/>
				<rect x="546.9" y="304.9" class="st40" width="5.1" height="10.7"/>
			</g>
			<polygon id="XMLID_302_" class="st40" points="468.3,306.7 423.9,306.7 423.9,225.6 468.3,216.4 			"/>
			<path id="XMLID_303_" class="st38" d="M423.9,222.2v100.3h47.5V210.3L423.9,222.2z M459.1,218h5.7v5.7h-5.7V218z M459.1,227.5
				h5.7v5.7h-5.7V227.5z M459.1,237h5.7v5.7h-5.7V237z M459.1,246.6h5.7v5.7h-5.7V246.6z M436,290.3h-5.7v-5.7h5.7V290.3z
				 M436,280.9h-5.7v-5.7h5.7V280.9z M436,271.3h-5.7v-5.7h5.7V271.3z M436,261.8h-5.7v-5.7h5.7V261.8z M436,252.3h-5.7v-5.7h5.7
				V252.3z M436,242.7h-5.7V237h5.7V242.7z M436,233.2h-5.7v-5.7h5.7V233.2z M445.8,299.8h-5.7v-5.7h5.7V299.8z M445.8,290.3h-5.7
				v-5.7h5.7V290.3z M445.8,280.9h-5.7v-5.7h5.7V280.9z M445.8,271.3h-5.7v-5.7h5.7V271.3z M445.8,261.8h-5.7v-5.7h5.7V261.8z
				 M445.8,252.3h-5.7v-5.7h5.7V252.3z M445.8,242.7h-5.7V237h5.7V242.7z M445.8,233.2h-5.7v-5.7h5.7V233.2z M449.3,227.5h5.7v5.7
				h-5.7V227.5z M455.1,299.8h-5.7v-5.7h5.7V299.8z M455.1,290.3h-5.7v-5.7h5.7V290.3z M455.1,280.9h-5.7v-5.7h5.7V280.9z
				 M455.1,271.3h-5.7v-5.7h5.7V271.3z M455.1,261.8h-5.7v-5.7h5.7V261.8z M455.3,252.3h-5.7v-5.7h5.7V252.3z M455.3,242.7h-5.7V237
				h5.7V242.7z M458.9,256.1h5.7v5.7h-5.7V256.1z M464.9,299.8h-5.7v-5.7h5.7V299.8z M464.9,290.3h-5.7v-5.7h5.7V290.3z
				 M464.9,280.9h-5.7v-5.7h5.7V280.9z M464.9,271.3h-5.7v-5.7h5.7V271.3z"/>
			<rect x="471.3" y="254" class="st41" width="12" height="68.5"/>
			<rect x="471.3" y="252.8" class="st40" width="94.8" height="2.8"/>
		</g>
		<g>
			<rect x="333.6" y="229.9" class="st42" width="36.2" height="60.5"/>
			<path id="XMLID_337_" class="st43" d="M329.7,224.3v98.6h41.7v-98.6H329.7z M360.8,281.3h5v5h-5V281.3z M360.8,272.9h5v5h-5
				V272.9z M360.8,264.6h5v5h-5V264.6z M360.8,256.2h5v5h-5V256.2z M360.8,247.8h5v5h-5V247.8z M360.8,239.4h5v5h-5V239.4z
				 M360.8,231h5v5h-5V231z M352.2,281.3h5v5h-5V281.3z M352.2,272.9h5v5h-5V272.9z M352.2,264.6h5v5h-5V264.6z M352.2,256.2h5v5h-5
				V256.2z M352.2,247.8h5v5h-5V247.8z M352.2,239.4h5v5h-5V239.4z M352.2,231h5v5h-5V231z M344,281.3h5v5h-5V281.3z M344,272.9h5v5
				h-5V272.9z M344,264.6h5v5h-5V264.6z M335.4,281.3h5v5h-5V281.3z M335.4,272.9h5v5h-5V272.9z"/>
			<g id="XMLID_358_">
				<path class="st32" d="M360.1,302.8c0-5.2-4.3-9.5-9.5-9.5c-5.2,0-9.5,4.3-9.5,9.5v20.3h19V302.8z"/>
				<g id="XMLID_359_">
					<line id="XMLID_362_" class="st33" x1="348.4" y1="306.6" x2="348.4" y2="310"/>
					<line id="XMLID_363_" class="st33" x1="352.8" y1="306.6" x2="352.8" y2="310"/>
				</g>
				<path id="XMLID_364_" class="st34" d="M350.6,293.3c-0.2,0-0.4,0-0.6,0v29.8h1.3v-29.8C351,293.4,350.8,293.3,350.6,293.3z"/>
			</g>
			<g id="XMLID_365_">
				<g id="XMLID_366_">
					<rect x="294" y="174.5" class="st44" width="33.8" height="81.8"/>
				</g>
				<g id="XMLID_367_">
					<rect id="XMLID_368_" x="300" y="138.3" class="st43" width="3" height="29.1"/>
				</g>
				<g id="XMLID_369_">
					<g id="XMLID_370_">
						<rect id="XMLID_371_" x="318.4" y="149.2" class="st43" width="3" height="18.3"/>
					</g>
				</g>
				<g id="XMLID_372_">
					<g id="XMLID_373_">
						<rect x="294" y="164.7" class="st32" width="15.1" height="9.8"/>
					</g>
				</g>
				<g id="XMLID_374_">
					<rect x="315.2" y="164.7" class="st32" width="9.3" height="9.3"/>
				</g>
				<g id="XMLID_375_">
					<path id="XMLID_376_" class="st44" d="M289.9,173l-0.4,149.4h40.4l0.4-149.4H289.9z M299.7,205h-4.4v-4.4h4.4V205z
						 M299.7,197.6h-4.4v-4.4h4.4V197.6z M299.7,190.1h-4.4v-4.4h4.4V190.1z M299.7,182.7h-4.4v-4.4h4.4V182.7z M308.4,191.6h-3
						v-13.3h3V191.6z M313.9,191.6h-3v-13.3h3V191.6z M319.4,191.6h-3v-13.3h3V191.6z M324.9,191.6h-3v-13.3h3V191.6z"/>
				</g>
				<g id="XMLID_386_">
					<path class="st42" d="M305.3,235.2H298c-0.6,0-1.1-0.5-1.1-1.1V218c0-0.6,0.5-1.1,1.1-1.1h7.3c0.6,0,1.1,0.5,1.1,1.1v16.1
						C306.4,234.7,305.9,235.2,305.3,235.2z"/>
					<rect x="296.9" y="216.7" class="st32" width="9.5" height="10.9"/>
					<path id="XMLID_387_" class="st45" d="M305.5,216.9h-7.7c-0.3,0-0.5,0.1-0.7,0.4h6.2c0.5,0,0.9,0.4,0.9,0.9v16.4
						c0,0.2-0.1,0.4-0.2,0.6h1.4c0.5,0,0.9-0.4,0.9-0.9v-16.4C306.4,217.3,306,216.9,305.5,216.9z"/>
					<path class="st46" d="M306.4,235.2h-9.5V218c0-0.6,0.5-1.1,1.1-1.1h7.3c0.6,0,1.1,0.5,1.1,1.1V235.2z"/>
					<path id="XMLID_388_" class="st47" d="M303.8,216.6c0-1.1-1-2-2.1-2s-2.1,0.9-2.1,2H303.8z"/>
					<rect x="296.9" y="224.5" class="st47" width="9.5" height="1.9"/>
					<rect x="295.2" y="233.8" class="st47" width="13" height="1.9"/>
					<polygon class="st45" points="309.9,237.7 296.9,237.7 295.2,235.7 308.3,235.7 					"/>
					<polygon id="XMLID_391_" class="st44" points="305.3,231.5 298,231.5 298.9,233.8 304.4,233.8 					"/>
					<circle id="XMLID_392_" class="st48" cx="298.8" cy="231.5" r="1.1"/>
					<circle id="XMLID_393_" class="st48" cx="299.7" cy="230.6" r="0.9"/>
					<circle id="XMLID_394_" class="st48" cx="300.7" cy="231.5" r="1"/>
					<circle id="XMLID_395_" class="st48" cx="300.8" cy="229.9" r="0.8"/>
					<circle id="XMLID_396_" class="st48" cx="302.4" cy="231.4" r="0.9"/>
					<circle id="XMLID_397_" class="st48" cx="303.2" cy="230.7" r="0.6"/>
					<circle id="XMLID_398_" class="st48" cx="303.7" cy="231.5" r="0.6"/>
					<circle id="XMLID_399_" class="st48" cx="304.7" cy="230.8" r="1.1"/>
					<circle id="XMLID_400_" class="st48" cx="302.6" cy="230.4" r="1.1"/>
					<ellipse id="XMLID_401_" class="st48" cx="300.9" cy="230.8" rx="1.1" ry="1"/>
				</g>
				<g id="XMLID_402_">
					<path class="st42" d="M321.9,235h-7.3c-0.6,0-1.1-0.5-1.1-1.1v-16.1c0-0.6,0.5-1.1,1.1-1.1h7.3c0.6,0,1.1,0.5,1.1,1.1v16.1
						C323,234.5,322.5,235,321.9,235z"/>
					<rect x="313.5" y="216.6" class="st32" width="9.5" height="3.7"/>
					<path id="XMLID_403_" class="st45" d="M322.1,216.7h-7.7c-0.3,0-0.5,0.1-0.7,0.4h6.2c0.5,0,0.9,0.4,0.9,0.9v16.4
						c0,0.2-0.1,0.4-0.2,0.6h1.4c0.5,0,0.9-0.4,0.9-0.9v-16.4C323,217.2,322.6,216.7,322.1,216.7z"/>
					<path class="st46" d="M323,235h-9.5v-17.2c0-0.6,0.5-1.1,1.1-1.1h7.3c0.6,0,1.1,0.5,1.1,1.1V235z"/>
					<path id="XMLID_404_" class="st47" d="M320.4,216.5c0-1.1-1-2-2.1-2s-2.1,0.9-2.1,2H320.4z"/>
					<rect x="313.5" y="224.4" class="st47" width="9.5" height="1.9"/>
					<rect x="311.8" y="233.6" class="st47" width="13" height="1.9"/>
					<polygon class="st45" points="326.5,237.6 313.5,237.6 311.8,235.5 324.8,235.5 					"/>
					<polygon id="XMLID_407_" class="st44" points="321.8,231.3 314.6,231.3 315.4,233.6 321,233.6 					"/>
					<circle id="XMLID_408_" class="st48" cx="315.3" cy="231.4" r="1.1"/>
					<circle id="XMLID_409_" class="st48" cx="316.3" cy="230.4" r="0.9"/>
					<circle id="XMLID_410_" class="st48" cx="317.3" cy="231.4" r="1"/>
					<circle id="XMLID_411_" class="st48" cx="317.4" cy="229.7" r="0.8"/>
					<circle id="XMLID_412_" class="st48" cx="318.9" cy="231.3" r="0.9"/>
					<circle id="XMLID_413_" class="st48" cx="319.8" cy="230.6" r="0.6"/>
					<circle id="XMLID_414_" class="st48" cx="320.3" cy="231.3" r="0.6"/>
					<circle id="XMLID_415_" class="st48" cx="321.3" cy="230.7" r="1.1"/>
					<circle id="XMLID_416_" class="st48" cx="319.2" cy="230.3" r="1.1"/>
					<ellipse id="XMLID_417_" class="st48" cx="317.5" cy="230.7" rx="1.1" ry="1"/>
				</g>
				<g id="XMLID_418_">
					<path class="st42" d="M305.3,268.5H298c-0.6,0-1.1-0.5-1.1-1.1v-16.1c0-0.6,0.5-1.1,1.1-1.1h7.3c0.6,0,1.1,0.5,1.1,1.1v16.1
						C306.4,268,305.9,268.5,305.3,268.5z"/>
					<rect x="296.9" y="250" class="st32" width="9.5" height="5.8"/>
					<path id="XMLID_419_" class="st45" d="M305.5,250.2h-7.7c-0.3,0-0.5,0.1-0.7,0.4h6.2c0.5,0,0.9,0.4,0.9,0.9v16.4
						c0,0.2-0.1,0.4-0.2,0.6h1.4c0.5,0,0.9-0.4,0.9-0.9v-16.4C306.4,250.6,306,250.2,305.5,250.2z"/>
					<path class="st46" d="M306.4,268.5h-9.5v-17.2c0-0.6,0.5-1.1,1.1-1.1h7.3c0.6,0,1.1,0.5,1.1,1.1V268.5z"/>
					<path id="XMLID_420_" class="st47" d="M303.8,249.9c0-1.1-1-2-2.1-2s-2.1,0.9-2.1,2H303.8z"/>
					<rect x="296.9" y="257.8" class="st47" width="9.5" height="1.9"/>
					<rect x="295.2" y="267.1" class="st47" width="13" height="1.9"/>
					<polygon class="st45" points="309.9,271 296.9,271 295.2,269 308.3,269 					"/>
					<polygon id="XMLID_423_" class="st44" points="305.3,264.8 298,264.8 298.9,267.1 304.4,267.1 					"/>
					<circle id="XMLID_424_" class="st48" cx="298.8" cy="264.8" r="1.1"/>
					<circle id="XMLID_425_" class="st48" cx="299.7" cy="263.9" r="0.9"/>
					<circle id="XMLID_426_" class="st48" cx="300.7" cy="264.8" r="1"/>
					<circle id="XMLID_427_" class="st48" cx="300.8" cy="263.2" r="0.8"/>
					<circle id="XMLID_428_" class="st48" cx="302.4" cy="264.7" r="0.9"/>
					<circle id="XMLID_429_" class="st48" cx="303.2" cy="264" r="0.6"/>
					<circle id="XMLID_430_" class="st48" cx="303.7" cy="264.8" r="0.6"/>
					<circle id="XMLID_431_" class="st48" cx="304.7" cy="264.1" r="1.1"/>
					<circle id="XMLID_432_" class="st48" cx="302.6" cy="263.7" r="1.1"/>
					<ellipse id="XMLID_433_" class="st48" cx="300.9" cy="264.1" rx="1.1" ry="1"/>
				</g>
				<g id="XMLID_434_">
					<path class="st42" d="M321.9,268.3h-7.3c-0.6,0-1.1-0.5-1.1-1.1v-16.1c0-0.6,0.5-1.1,1.1-1.1h7.3c0.6,0,1.1,0.5,1.1,1.1v16.1
						C323,267.8,322.5,268.3,321.9,268.3z"/>
					<rect x="313.5" y="249.9" class="st32" width="9.5" height="10.9"/>
					<path id="XMLID_435_" class="st45" d="M322.1,250h-7.7c-0.3,0-0.5,0.1-0.7,0.4h6.2c0.5,0,0.9,0.4,0.9,0.9v16.4
						c0,0.2-0.1,0.4-0.2,0.6h1.4c0.5,0,0.9-0.4,0.9-0.9V251C323,250.5,322.6,250,322.1,250z"/>
					<path class="st46" d="M323,268.3h-9.5v-17.2c0-0.6,0.5-1.1,1.1-1.1h7.3c0.6,0,1.1,0.5,1.1,1.1V268.3z"/>
					<path id="XMLID_436_" class="st47" d="M320.4,249.8c0-1.1-1-2-2.1-2s-2.1,0.9-2.1,2H320.4z"/>
					<rect x="313.5" y="257.7" class="st47" width="9.5" height="1.9"/>
					<rect x="311.8" y="266.9" class="st47" width="13" height="1.9"/>
					<polygon class="st45" points="326.5,270.9 313.5,270.9 311.8,268.8 324.8,268.8 					"/>
					<polygon id="XMLID_439_" class="st44" points="321.8,264.6 314.6,264.6 315.4,266.9 321,266.9 					"/>
					<circle id="XMLID_440_" class="st48" cx="315.3" cy="264.7" r="1.1"/>
					<circle id="XMLID_441_" class="st48" cx="316.3" cy="263.7" r="0.9"/>
					<circle id="XMLID_442_" class="st48" cx="317.3" cy="264.7" r="1"/>
					<circle id="XMLID_443_" class="st48" cx="317.4" cy="263" r="0.8"/>
					<circle id="XMLID_444_" class="st48" cx="318.9" cy="264.6" r="0.9"/>
					<circle id="XMLID_445_" class="st48" cx="319.8" cy="263.9" r="0.6"/>
					<circle id="XMLID_446_" class="st48" cx="320.3" cy="264.6" r="0.6"/>
					<circle id="XMLID_447_" class="st48" cx="321.3" cy="264" r="1.1"/>
					<circle id="XMLID_448_" class="st48" cx="319.2" cy="263.6" r="1.1"/>
					<ellipse id="XMLID_449_" class="st48" cx="317.5" cy="264" rx="1.1" ry="1"/>
				</g>
				<g id="XMLID_450_">
					<path class="st42" d="M305.4,295.9h-7.3c-0.6,0-1.1-0.5-1.1-1.1v-16.1c0-0.6,0.5-1.1,1.1-1.1h7.3c0.6,0,1.1,0.5,1.1,1.1v16.1
						C306.5,295.4,306,295.9,305.4,295.9z"/>
					<path id="XMLID_451_" class="st45" d="M305.5,277.6h-7.7c-0.3,0-0.5,0.1-0.7,0.4h6.2c0.5,0,0.9,0.4,0.9,0.9v16.4
						c0,0.2-0.1,0.4-0.2,0.6h1.4c0.5,0,0.9-0.4,0.9-0.9v-16.4C306.5,278,306,277.6,305.5,277.6z"/>
					<path class="st46" d="M306.5,295.9H297v-17.2c0-0.6,0.5-1.1,1.1-1.1h7.3c0.6,0,1.1,0.5,1.1,1.1V295.9z"/>
					<path id="XMLID_452_" class="st47" d="M303.8,277.3c0-1.1-1-2-2.1-2c-1.1,0-2.1,0.9-2.1,2H303.8z"/>
					<rect x="297" y="285.2" class="st47" width="9.5" height="1.9"/>
					<rect x="295.3" y="294.5" class="st47" width="13" height="1.9"/>
					<polygon class="st45" points="310,298.4 296.9,298.4 295.3,296.3 308.3,296.3 					"/>
					<polygon id="XMLID_455_" class="st44" points="305.3,292.2 298,292.2 298.9,294.5 304.5,294.5 					"/>
					<circle id="XMLID_456_" class="st48" cx="298.8" cy="292.2" r="1.1"/>
					<circle id="XMLID_457_" class="st48" cx="299.8" cy="291.3" r="0.9"/>
					<circle id="XMLID_458_" class="st48" cx="300.7" cy="292.2" r="1"/>
					<circle id="XMLID_459_" class="st48" cx="300.8" cy="290.6" r="0.8"/>
					<circle id="XMLID_460_" class="st48" cx="302.4" cy="292.1" r="0.9"/>
					<circle id="XMLID_461_" class="st48" cx="303.3" cy="291.4" r="0.6"/>
					<circle id="XMLID_462_" class="st48" cx="303.8" cy="292.2" r="0.6"/>
					<circle id="XMLID_463_" class="st48" cx="304.7" cy="291.5" r="1.1"/>
					<circle id="XMLID_464_" class="st48" cx="302.6" cy="291.1" r="1.1"/>
					<ellipse id="XMLID_465_" class="st48" cx="300.9" cy="291.5" rx="1.1" ry="1"/>
				</g>
				<g id="XMLID_466_">
					<path class="st42" d="M321.9,295.7h-7.3c-0.6,0-1.1-0.5-1.1-1.1v-16.1c0-0.6,0.5-1.1,1.1-1.1h7.3c0.6,0,1.1,0.5,1.1,1.1v16.1
						C323,295.2,322.5,295.7,321.9,295.7z"/>
					<path id="XMLID_467_" class="st45" d="M322.1,277.4h-7.7c-0.3,0-0.5,0.1-0.7,0.4h6.2c0.5,0,0.9,0.4,0.9,0.9v16.4
						c0,0.2-0.1,0.4-0.2,0.6h1.4c0.5,0,0.9-0.4,0.9-0.9v-16.4C323,277.8,322.6,277.4,322.1,277.4z"/>
					<path class="st46" d="M323,295.7h-9.5v-17.2c0-0.6,0.5-1.1,1.1-1.1h7.3c0.6,0,1.1,0.5,1.1,1.1V295.7z"/>
					<path id="XMLID_468_" class="st47" d="M320.4,277.2c0-1.1-1-2-2.1-2c-1.1,0-2.1,0.9-2.1,2H320.4z"/>
					<rect x="313.5" y="285.1" class="st47" width="9.5" height="1.9"/>
					<rect x="311.8" y="294.3" class="st47" width="13" height="1.9"/>
					<polygon class="st45" points="326.5,298.3 313.5,298.3 311.8,296.2 324.8,296.2 					"/>
					<polygon id="XMLID_471_" class="st44" points="321.9,292 314.6,292 315.4,294.3 321,294.3 					"/>
					<circle id="XMLID_472_" class="st48" cx="315.4" cy="292.1" r="1.1"/>
					<circle id="XMLID_473_" class="st48" cx="316.3" cy="291.1" r="0.9"/>
					<circle id="XMLID_474_" class="st48" cx="317.3" cy="292.1" r="1"/>
					<circle id="XMLID_475_" class="st48" cx="317.4" cy="290.4" r="0.8"/>
					<circle id="XMLID_476_" class="st48" cx="319" cy="292" r="0.9"/>
					<circle id="XMLID_477_" class="st48" cx="319.8" cy="291.3" r="0.6"/>
					<circle id="XMLID_478_" class="st48" cx="320.3" cy="292" r="0.6"/>
					<circle id="XMLID_479_" class="st48" cx="321.3" cy="291.4" r="1.1"/>
					<circle id="XMLID_480_" class="st48" cx="319.2" cy="291" r="1.1"/>
					<ellipse id="XMLID_481_" class="st48" cx="317.5" cy="291.4" rx="1.1" ry="1"/>
				</g>
				<rect x="286.8" y="238.1" class="st43" width="45.8" height="3.5"/>
				<g id="XMLID_482_">
					<path class="st42" d="M305.6,202.2h-7.3c-0.6,0-1.1-0.5-1.1-1.1V185c0-0.6,0.5-1.1,1.1-1.1h7.3c0.6,0,1.1,0.5,1.1,1.1v16.1
						C306.7,201.7,306.2,202.2,305.6,202.2z"/>
					<rect x="297.2" y="183.8" class="st32" width="9.5" height="10.9"/>
					<path id="XMLID_483_" class="st45" d="M305.8,183.9h-7.7c-0.3,0-0.5,0.1-0.7,0.4h6.2c0.5,0,0.9,0.4,0.9,0.9v16.4
						c0,0.2-0.1,0.4-0.2,0.6h1.4c0.5,0,0.9-0.4,0.9-0.9v-16.4C306.7,184.4,306.3,183.9,305.8,183.9z"/>
					<path class="st46" d="M306.7,202.2h-9.5V185c0-0.6,0.5-1.1,1.1-1.1h7.3c0.6,0,1.1,0.5,1.1,1.1V202.2z"/>
					<path id="XMLID_484_" class="st47" d="M304.1,183.7c0-1.1-1-2-2.1-2s-2.1,0.9-2.1,2H304.1z"/>
					<rect x="297.2" y="191.6" class="st47" width="9.5" height="1.9"/>
					<rect x="295.5" y="200.8" class="st47" width="13" height="1.9"/>
					<polygon class="st45" points="310.2,204.8 297.2,204.8 295.5,202.7 308.5,202.7 					"/>
					<polygon id="XMLID_487_" class="st44" points="305.5,198.5 298.3,198.5 299.1,200.8 304.7,200.8 					"/>
					<circle id="XMLID_488_" class="st48" cx="299" cy="198.6" r="1.1"/>
					<circle id="XMLID_489_" class="st48" cx="300" cy="197.6" r="0.9"/>
					<circle id="XMLID_490_" class="st48" cx="301" cy="198.6" r="1"/>
					<circle id="XMLID_491_" class="st48" cx="301.1" cy="196.9" r="0.8"/>
					<circle id="XMLID_492_" class="st48" cx="302.7" cy="198.5" r="0.9"/>
					<circle id="XMLID_493_" class="st48" cx="303.5" cy="197.8" r="0.6"/>
					<circle id="XMLID_494_" class="st48" cx="304" cy="198.5" r="0.6"/>
					<circle id="XMLID_495_" class="st48" cx="305" cy="197.9" r="1.1"/>
					<circle id="XMLID_496_" class="st48" cx="302.9" cy="197.5" r="1.1"/>
					<ellipse id="XMLID_497_" class="st48" cx="301.2" cy="197.9" rx="1.1" ry="1"/>
				</g>
				<g id="XMLID_498_">
					<path class="st42" d="M322.2,202.1h-7.3c-0.6,0-1.1-0.5-1.1-1.1v-16.1c0-0.6,0.5-1.1,1.1-1.1h7.3c0.6,0,1.1,0.5,1.1,1.1V201
						C323.3,201.6,322.8,202.1,322.2,202.1z"/>
					<rect x="313.8" y="183.7" class="st32" width="9.5" height="17"/>
					<path id="XMLID_499_" class="st45" d="M322.3,183.8h-7.7c-0.3,0-0.5,0.1-0.7,0.4h6.2c0.5,0,0.9,0.4,0.9,0.9v16.4
						c0,0.2-0.1,0.4-0.2,0.6h1.4c0.5,0,0.9-0.4,0.9-0.9v-16.4C323.3,184.2,322.9,183.8,322.3,183.8z"/>
					<path class="st46" d="M323.3,202.1h-9.5v-17.2c0-0.6,0.5-1.1,1.1-1.1h7.3c0.6,0,1.1,0.5,1.1,1.1V202.1z"/>
					<path id="XMLID_500_" class="st47" d="M320.6,183.5c0-1.1-1-2-2.1-2s-2.1,0.9-2.1,2H320.6z"/>
					<rect x="313.8" y="191.4" class="st47" width="9.5" height="1.9"/>
					<rect x="312.1" y="200.7" class="st47" width="13" height="1.9"/>
					<polygon class="st45" points="326.8,204.7 313.7,204.7 312.1,202.6 325.1,202.6 					"/>
					<polygon id="XMLID_503_" class="st44" points="322.1,198.4 314.9,198.4 315.7,200.7 321.3,200.7 					"/>
					<circle id="XMLID_504_" class="st48" cx="315.6" cy="198.5" r="1.1"/>
					<circle id="XMLID_505_" class="st48" cx="316.6" cy="197.5" r="0.9"/>
					<circle id="XMLID_506_" class="st48" cx="317.5" cy="198.4" r="1"/>
					<circle id="XMLID_507_" class="st48" cx="317.7" cy="196.8" r="0.8"/>
					<circle id="XMLID_508_" class="st48" cx="319.2" cy="198.4" r="0.9"/>
					<circle id="XMLID_509_" class="st48" cx="320.1" cy="197.6" r="0.6"/>
					<circle id="XMLID_510_" class="st48" cx="320.6" cy="198.4" r="0.6"/>
					<circle id="XMLID_511_" class="st48" cx="321.5" cy="197.8" r="1.1"/>
					<circle id="XMLID_512_" class="st48" cx="319.5" cy="197.3" r="1.1"/>
					<ellipse id="XMLID_513_" class="st48" cx="317.8" cy="197.8" rx="1.1" ry="1"/>
				</g>
				<rect x="287" y="205" class="st43" width="45.8" height="3.5"/>
				<rect x="287" y="271" class="st43" width="45.8" height="3.5"/>
				<rect x="289.5" y="310.4" class="st32" width="40.4" height="12.1"/>
			</g>
			<g id="XMLID_514_">
				<g id="XMLID_515_">
					
						<rect x="373.5" y="174.9" transform="matrix(-1 -1.224647e-16 1.224647e-16 -1 780.8083 431.5011)" class="st44" width="33.8" height="81.8"/>
				</g>
				<g id="XMLID_516_">
					<path id="XMLID_517_" class="st44" d="M371,173.4l0.4,149.4h40.4l-0.4-149.4H371z M401.6,200.9h4.4v4.4h-4.4V200.9z
						 M401.6,193.5h4.4v4.4h-4.4V193.5z M401.6,186h4.4v4.4h-4.4V186z M401.6,178.6h4.4v4.4h-4.4V178.6z M392.8,178.6h3v13.3h-3
						V178.6z M387.3,178.6h3v13.3h-3V178.6z M381.8,178.6h3v13.3h-3V178.6z M376.3,178.6h3v13.3h-3V178.6z"/>
				</g>
				<g id="XMLID_527_">
					<path class="st42" d="M395.9,235.5h7.3c0.6,0,1.1-0.5,1.1-1.1v-16.1c0-0.6-0.5-1.1-1.1-1.1h-7.3c-0.6,0-1.1,0.5-1.1,1.1v16.1
						C394.8,235,395.3,235.5,395.9,235.5z"/>
					
						<rect x="394.8" y="217.1" transform="matrix(-1 -1.224647e-16 1.224647e-16 -1 799.1724 445.035)" class="st32" width="9.5" height="10.9"/>
					<path id="XMLID_528_" class="st45" d="M395.8,217.2h7.7c0.3,0,0.5,0.1,0.7,0.4h-6.2c-0.5,0-0.9,0.4-0.9,0.9v16.4
						c0,0.2,0.1,0.4,0.2,0.6h-1.4c-0.5,0-0.9-0.4-0.9-0.9v-16.4C394.8,217.6,395.2,217.2,395.8,217.2z"/>
					<path class="st46" d="M394.8,235.5h9.5v-17.2c0-0.6-0.5-1.1-1.1-1.1h-7.3c-0.6,0-1.1,0.5-1.1,1.1V235.5z"/>
					<path id="XMLID_529_" class="st47" d="M397.5,216.9c0-1.1,1-2,2.1-2s2.1,0.9,2.1,2H397.5z"/>
					
						<rect x="394.8" y="224.8" transform="matrix(-1 -1.224647e-16 1.224647e-16 -1 799.1689 451.5621)" class="st47" width="9.5" height="1.9"/>
					
						<rect x="393" y="234.1" transform="matrix(-1 -1.224647e-16 1.224647e-16 -1 799.0429 470.1047)" class="st47" width="13" height="1.9"/>
					<polygon class="st45" points="391.3,238.1 404.4,238.1 406,236 393,236 					"/>
					<polygon id="XMLID_532_" class="st44" points="396,231.8 403.2,231.8 402.4,234.1 396.8,234.1 					"/>
					<circle id="XMLID_533_" class="st48" cx="402.5" cy="231.9" r="1.1"/>
					<circle id="XMLID_534_" class="st48" cx="401.5" cy="230.9" r="0.9"/>
					<circle id="XMLID_535_" class="st48" cx="400.6" cy="231.9" r="1"/>
					<circle id="XMLID_536_" class="st48" cx="400.4" cy="230.2" r="0.8"/>
					<circle id="XMLID_537_" class="st48" cx="398.9" cy="231.8" r="0.9"/>
					<circle id="XMLID_538_" class="st48" cx="398" cy="231" r="0.6"/>
					<circle id="XMLID_539_" class="st48" cx="397.5" cy="231.8" r="0.6"/>
					<circle id="XMLID_540_" class="st48" cx="396.6" cy="231.2" r="1.1"/>
					<circle id="XMLID_541_" class="st48" cx="398.6" cy="230.8" r="1.1"/>
					<ellipse id="XMLID_542_" class="st48" cx="400.3" cy="231.2" rx="1.1" ry="1"/>
				</g>
				<g id="XMLID_543_">
					<path class="st42" d="M379.4,235.4h7.3c0.6,0,1.1-0.5,1.1-1.1v-16.1c0-0.6-0.5-1.1-1.1-1.1h-7.3c-0.6,0-1.1,0.5-1.1,1.1v16.1
						C378.3,234.9,378.8,235.4,379.4,235.4z"/>
					
						<rect x="378.3" y="216.9" transform="matrix(-1 -1.224647e-16 1.224647e-16 -1 766.0492 437.5866)" class="st32" width="9.5" height="3.7"/>
					<path id="XMLID_544_" class="st45" d="M379.2,217.1h7.7c0.3,0,0.5,0.1,0.7,0.4h-6.2c-0.5,0-0.9,0.4-0.9,0.9v16.4
						c0,0.2,0.1,0.4,0.2,0.6h-1.4c-0.5,0-0.9-0.4-0.9-0.9V218C378.3,217.5,378.7,217.1,379.2,217.1z"/>
					<path class="st46" d="M378.3,235.4h9.5v-17.2c0-0.6-0.5-1.1-1.1-1.1h-7.3c-0.6,0-1.1,0.5-1.1,1.1V235.4z"/>
					<path id="XMLID_545_" class="st47" d="M380.9,216.8c0-1.1,1-2,2.1-2s2.1,0.9,2.1,2H380.9z"/>
					
						<rect x="378.3" y="224.7" transform="matrix(-1 -1.224647e-16 1.224647e-16 -1 766.0457 451.2968)" class="st47" width="9.5" height="1.9"/>
					
						<rect x="376.4" y="234" transform="matrix(-1 -1.224647e-16 1.224647e-16 -1 765.9197 469.8394)" class="st47" width="13" height="1.9"/>
					<polygon class="st45" points="374.8,238 387.8,238 389.5,235.9 376.4,235.9 					"/>
					<polygon id="XMLID_548_" class="st44" points="379.4,231.7 386.7,231.7 385.8,234 380.3,234 					"/>
					<circle id="XMLID_549_" class="st48" cx="385.9" cy="231.7" r="1.1"/>
					<circle id="XMLID_550_" class="st48" cx="385" cy="230.8" r="0.9"/>
					<circle id="XMLID_551_" class="st48" cx="384" cy="231.7" r="1"/>
					<circle id="XMLID_552_" class="st48" cx="383.9" cy="230.1" r="0.8"/>
					<circle id="XMLID_553_" class="st48" cx="382.3" cy="231.6" r="0.9"/>
					<circle id="XMLID_554_" class="st48" cx="381.5" cy="230.9" r="0.6"/>
					<circle id="XMLID_555_" class="st48" cx="381" cy="231.7" r="0.6"/>
					<circle id="XMLID_556_" class="st48" cx="380" cy="231" r="1.1"/>
					<circle id="XMLID_557_" class="st48" cx="382.1" cy="230.6" r="1.1"/>
					<ellipse id="XMLID_558_" class="st48" cx="383.8" cy="231" rx="1.1" ry="1"/>
				</g>
				<g id="XMLID_559_">
					<path class="st42" d="M395.9,268.8h7.3c0.6,0,1.1-0.5,1.1-1.1v-16.1c0-0.6-0.5-1.1-1.1-1.1h-7.3c-0.6,0-1.1,0.5-1.1,1.1v16.1
						C394.8,268.3,395.3,268.8,395.9,268.8z"/>
					
						<rect x="394.8" y="250.4" transform="matrix(-1 -1.224647e-16 1.224647e-16 -1 799.1724 506.5503)" class="st32" width="9.5" height="5.8"/>
					<path id="XMLID_560_" class="st45" d="M395.8,250.5h7.7c0.3,0,0.5,0.1,0.7,0.4h-6.2c-0.5,0-0.9,0.4-0.9,0.9v16.4
						c0,0.2,0.1,0.4,0.2,0.6h-1.4c-0.5,0-0.9-0.4-0.9-0.9v-16.4C394.8,250.9,395.2,250.5,395.8,250.5z"/>
					<path class="st46" d="M394.8,268.8h9.5v-17.2c0-0.6-0.5-1.1-1.1-1.1h-7.3c-0.6,0-1.1,0.5-1.1,1.1V268.8z"/>
					<path id="XMLID_561_" class="st47" d="M397.5,250.2c0-1.1,1-2,2.1-2s2.1,0.9,2.1,2H397.5z"/>
					
						<rect x="394.8" y="258.1" transform="matrix(-1 -1.224647e-16 1.224647e-16 -1 799.1689 518.1608)" class="st47" width="9.5" height="1.9"/>
					
						<rect x="393" y="267.4" transform="matrix(-1 -1.224647e-16 1.224647e-16 -1 799.0429 536.7034)" class="st47" width="13" height="1.9"/>
					<polygon class="st45" points="391.3,271.4 404.4,271.4 406,269.3 393,269.3 					"/>
					<polygon id="XMLID_564_" class="st44" points="396,265.1 403.2,265.1 402.4,267.4 396.8,267.4 					"/>
					<circle id="XMLID_565_" class="st48" cx="402.5" cy="265.2" r="1.1"/>
					<circle id="XMLID_566_" class="st48" cx="401.5" cy="264.2" r="0.9"/>
					<circle id="XMLID_567_" class="st48" cx="400.6" cy="265.2" r="1"/>
					<circle id="XMLID_568_" class="st48" cx="400.4" cy="263.5" r="0.8"/>
					<circle id="XMLID_569_" class="st48" cx="398.9" cy="265.1" r="0.9"/>
					<circle id="XMLID_570_" class="st48" cx="398" cy="264.3" r="0.6"/>
					<circle id="XMLID_571_" class="st48" cx="397.5" cy="265.1" r="0.6"/>
					<circle id="XMLID_572_" class="st48" cx="396.6" cy="264.5" r="1.1"/>
					<circle id="XMLID_573_" class="st48" cx="398.6" cy="264.1" r="1.1"/>
					<ellipse id="XMLID_574_" class="st48" cx="400.3" cy="264.5" rx="1.1" ry="1"/>
				</g>
				<g id="XMLID_575_">
					<path class="st42" d="M379.4,268.7h7.3c0.6,0,1.1-0.5,1.1-1.1v-16.1c0-0.6-0.5-1.1-1.1-1.1h-7.3c-0.6,0-1.1,0.5-1.1,1.1v16.1
						C378.3,268.2,378.8,268.7,379.4,268.7z"/>
					
						<rect x="378.3" y="250.2" transform="matrix(-1 -1.224647e-16 1.224647e-16 -1 766.0492 511.3684)" class="st32" width="9.5" height="10.9"/>
					<path id="XMLID_576_" class="st45" d="M379.2,250.4h7.7c0.3,0,0.5,0.1,0.7,0.4h-6.2c-0.5,0-0.9,0.4-0.9,0.9v16.4
						c0,0.2,0.1,0.4,0.2,0.6h-1.4c-0.5,0-0.9-0.4-0.9-0.9v-16.4C378.3,250.8,378.7,250.4,379.2,250.4z"/>
					<path class="st46" d="M378.3,268.7h9.5v-17.2c0-0.6-0.5-1.1-1.1-1.1h-7.3c-0.6,0-1.1,0.5-1.1,1.1V268.7z"/>
					<path id="XMLID_577_" class="st47" d="M380.9,250.1c0-1.1,1-2,2.1-2s2.1,0.9,2.1,2H380.9z"/>
					
						<rect x="378.3" y="258" transform="matrix(-1 -1.224647e-16 1.224647e-16 -1 766.0457 517.8955)" class="st47" width="9.5" height="1.9"/>
					
						<rect x="376.4" y="267.3" transform="matrix(-1 -1.224647e-16 1.224647e-16 -1 765.9197 536.4381)" class="st47" width="13" height="1.9"/>
					<polygon class="st45" points="374.8,271.3 387.8,271.3 389.5,269.2 376.4,269.2 					"/>
					<polygon id="XMLID_580_" class="st44" points="379.4,265 386.7,265 385.8,267.3 380.3,267.3 					"/>
					<circle id="XMLID_581_" class="st48" cx="385.9" cy="265" r="1.1"/>
					<circle id="XMLID_582_" class="st48" cx="385" cy="264.1" r="0.9"/>
					<circle id="XMLID_583_" class="st48" cx="384" cy="265" r="1"/>
					<circle id="XMLID_584_" class="st48" cx="383.9" cy="263.4" r="0.8"/>
					<circle id="XMLID_585_" class="st48" cx="382.3" cy="264.9" r="0.9"/>
					<circle id="XMLID_586_" class="st48" cx="381.5" cy="264.2" r="0.6"/>
					<circle id="XMLID_587_" class="st48" cx="381" cy="265" r="0.6"/>
					<circle id="XMLID_588_" class="st48" cx="380" cy="264.3" r="1.1"/>
					<circle id="XMLID_589_" class="st48" cx="382.1" cy="263.9" r="1.1"/>
					<ellipse id="XMLID_590_" class="st48" cx="383.8" cy="264.3" rx="1.1" ry="1"/>
				</g>
				<g id="XMLID_591_">
					<path class="st42" d="M395.9,296.2h7.3c0.6,0,1.1-0.5,1.1-1.1V279c0-0.6-0.5-1.1-1.1-1.1h-7.3c-0.6,0-1.1,0.5-1.1,1.1v16.1
						C394.8,295.7,395.3,296.2,395.9,296.2z"/>
					<path id="XMLID_592_" class="st45" d="M395.7,277.9h7.7c0.3,0,0.5,0.1,0.7,0.4h-6.2c-0.5,0-0.9,0.4-0.9,0.9v16.4
						c0,0.2,0.1,0.4,0.2,0.6h-1.4c-0.5,0-0.9-0.4-0.9-0.9v-16.4C394.8,278.3,395.2,277.9,395.7,277.9z"/>
					<path class="st46" d="M394.8,296.2h9.5V279c0-0.6-0.5-1.1-1.1-1.1h-7.3c-0.6,0-1.1,0.5-1.1,1.1V296.2z"/>
					<path id="XMLID_593_" class="st47" d="M397.4,277.6c0-1.1,1-2,2.1-2s2.1,0.9,2.1,2H397.4z"/>
					
						<rect x="394.8" y="285.5" transform="matrix(-1 -1.224647e-16 1.224647e-16 -1 799.1179 572.947)" class="st47" width="9.5" height="1.9"/>
					
						<rect x="393" y="294.8" transform="matrix(-1 -1.224647e-16 1.224647e-16 -1 798.9918 591.4896)" class="st47" width="13" height="1.9"/>
					<polygon class="st45" points="391.3,298.8 404.3,298.8 406,296.7 393,296.7 					"/>
					<polygon id="XMLID_596_" class="st44" points="396,292.5 403.2,292.5 402.4,294.8 396.8,294.8 					"/>
					<circle id="XMLID_597_" class="st48" cx="402.5" cy="292.6" r="1.1"/>
					<circle id="XMLID_598_" class="st48" cx="401.5" cy="291.6" r="0.9"/>
					<circle id="XMLID_599_" class="st48" cx="400.5" cy="292.5" r="1"/>
					<circle id="XMLID_600_" class="st48" cx="400.4" cy="290.9" r="0.8"/>
					<circle id="XMLID_601_" class="st48" cx="398.9" cy="292.5" r="0.9"/>
					<circle id="XMLID_602_" class="st48" cx="398" cy="291.7" r="0.6"/>
					<circle id="XMLID_603_" class="st48" cx="397.5" cy="292.5" r="0.6"/>
					<circle id="XMLID_604_" class="st48" cx="396.5" cy="291.9" r="1.1"/>
					<circle id="XMLID_605_" class="st48" cx="398.6" cy="291.4" r="1.1"/>
					<ellipse id="XMLID_606_" class="st48" cx="400.3" cy="291.9" rx="1.1" ry="1"/>
				</g>
				<g id="XMLID_607_">
					<path class="st42" d="M379.4,296.1h7.3c0.6,0,1.1-0.5,1.1-1.1v-16.1c0-0.6-0.5-1.1-1.1-1.1h-7.3c-0.6,0-1.1,0.5-1.1,1.1V295
						C378.2,295.6,378.7,296.1,379.4,296.1z"/>
					<path id="XMLID_608_" class="st45" d="M379.2,277.8h7.7c0.3,0,0.5,0.1,0.7,0.4h-6.2c-0.5,0-0.9,0.4-0.9,0.9v16.4
						c0,0.2,0.1,0.4,0.2,0.6h-1.4c-0.5,0-0.9-0.4-0.9-0.9v-16.4C378.2,278.2,378.7,277.8,379.2,277.8z"/>
					<path class="st46" d="M378.2,296.1h9.5v-17.2c0-0.6-0.5-1.1-1.1-1.1h-7.3c-0.6,0-1.1,0.5-1.1,1.1V296.1z"/>
					<path id="XMLID_609_" class="st47" d="M380.9,277.5c0-1.1,1-2,2.1-2c1.1,0,2.1,0.9,2.1,2H380.9z"/>
					
						<rect x="378.2" y="285.4" transform="matrix(-1 -1.224647e-16 1.224647e-16 -1 765.9947 572.6817)" class="st47" width="9.5" height="1.9"/>
					
						<rect x="376.4" y="294.7" transform="matrix(-1 -1.224647e-16 1.224647e-16 -1 765.8686 591.2243)" class="st47" width="13" height="1.9"/>
					<polygon class="st45" points="374.7,298.6 387.8,298.6 389.4,296.6 376.4,296.6 					"/>
					<polygon id="XMLID_612_" class="st44" points="379.4,292.4 386.7,292.4 385.8,294.7 380.2,294.7 					"/>
					<circle id="XMLID_613_" class="st48" cx="385.9" cy="292.4" r="1.1"/>
					<circle id="XMLID_614_" class="st48" cx="384.9" cy="291.5" r="0.9"/>
					<circle id="XMLID_615_" class="st48" cx="384" cy="292.4" r="1"/>
					<circle id="XMLID_616_" class="st48" cx="383.9" cy="290.8" r="0.8"/>
					<circle id="XMLID_617_" class="st48" cx="382.3" cy="292.3" r="0.9"/>
					<circle id="XMLID_618_" class="st48" cx="381.4" cy="291.6" r="0.6"/>
					<circle id="XMLID_619_" class="st48" cx="381" cy="292.4" r="0.6"/>
					<circle id="XMLID_620_" class="st48" cx="380" cy="291.7" r="1.1"/>
					<circle id="XMLID_621_" class="st48" cx="382.1" cy="291.3" r="1.1"/>
					<ellipse id="XMLID_622_" class="st48" cx="383.8" cy="291.7" rx="1.1" ry="1"/>
				</g>
				
					<rect x="368.6" y="238.4" transform="matrix(-1 -1.224647e-16 1.224647e-16 -1 783.1106 480.4272)" class="st43" width="45.8" height="3.5"/>
				<g id="XMLID_623_">
					<path class="st42" d="M395.7,202.6h7.3c0.6,0,1.1-0.5,1.1-1.1v-16.1c0-0.6-0.5-1.1-1.1-1.1h-7.3c-0.6,0-1.1,0.5-1.1,1.1v16.1
						C394.6,202.1,395.1,202.6,395.7,202.6z"/>
					
						<rect x="394.6" y="184.1" transform="matrix(-1 -1.224647e-16 1.224647e-16 -1 798.6233 379.1656)" class="st32" width="9.5" height="10.9"/>
					<path id="XMLID_624_" class="st45" d="M395.5,184.3h7.7c0.3,0,0.5,0.1,0.7,0.4h-6.2c-0.5,0-0.9,0.4-0.9,0.9V202
						c0,0.2,0.1,0.4,0.2,0.6h-1.4c-0.5,0-0.9-0.4-0.9-0.9v-16.4C394.6,184.7,395,184.3,395.5,184.3z"/>
					<path class="st46" d="M394.6,202.6h9.5v-17.2c0-0.6-0.5-1.1-1.1-1.1h-7.3c-0.6,0-1.1,0.5-1.1,1.1V202.6z"/>
					<path id="XMLID_625_" class="st47" d="M397.2,184c0-1.1,1-2,2.1-2s2.1,0.9,2.1,2H397.2z"/>
					
						<rect x="394.6" y="191.9" transform="matrix(-1 -1.224647e-16 1.224647e-16 -1 798.6199 385.6926)" class="st47" width="9.5" height="1.9"/>
					
						<rect x="392.7" y="201.2" transform="matrix(-1 -1.224647e-16 1.224647e-16 -1 798.4937 404.2352)" class="st47" width="13" height="1.9"/>
					<polygon class="st45" points="391.1,205.1 404.1,205.1 405.8,203.1 392.7,203.1 					"/>
					<polygon id="XMLID_628_" class="st44" points="395.7,198.9 403,198.9 402.1,201.2 396.6,201.2 					"/>
					<circle id="XMLID_629_" class="st48" cx="402.2" cy="198.9" r="1.1"/>
					<circle id="XMLID_630_" class="st48" cx="401.3" cy="198" r="0.9"/>
					<circle id="XMLID_631_" class="st48" cx="400.3" cy="198.9" r="1"/>
					<circle id="XMLID_632_" class="st48" cx="400.2" cy="197.3" r="0.8"/>
					<circle id="XMLID_633_" class="st48" cx="398.6" cy="198.8" r="0.9"/>
					<circle id="XMLID_634_" class="st48" cx="397.7" cy="198.1" r="0.6"/>
					<circle id="XMLID_635_" class="st48" cx="397.3" cy="198.9" r="0.6"/>
					<circle id="XMLID_636_" class="st48" cx="396.3" cy="198.2" r="1.1"/>
					<circle id="XMLID_637_" class="st48" cx="398.4" cy="197.8" r="1.1"/>
					<ellipse id="XMLID_638_" class="st48" cx="400.1" cy="198.2" rx="1.1" ry="1"/>
				</g>
				<g id="XMLID_639_">
					<path class="st42" d="M379.1,202.4h7.3c0.6,0,1.1-0.5,1.1-1.1v-16.1c0-0.6-0.5-1.1-1.1-1.1h-7.3c-0.6,0-1.1,0.5-1.1,1.1v16.1
						C378,201.9,378.5,202.4,379.1,202.4z"/>
					
						<rect x="378" y="184" transform="matrix(-1 -1.224647e-16 1.224647e-16 -1 765.5001 384.9871)" class="st32" width="9.5" height="17"/>
					<path id="XMLID_640_" class="st45" d="M378.9,184.1h7.7c0.3,0,0.5,0.1,0.7,0.4H381c-0.5,0-0.9,0.4-0.9,0.9v16.4
						c0,0.2,0.1,0.4,0.2,0.6h-1.4c-0.5,0-0.9-0.4-0.9-0.9v-16.4C378,184.6,378.4,184.1,378.9,184.1z"/>
					<path class="st46" d="M378,202.4h9.5v-17.2c0-0.6-0.5-1.1-1.1-1.1h-7.3c-0.6,0-1.1,0.5-1.1,1.1V202.4z"/>
					<path id="XMLID_641_" class="st47" d="M380.6,183.9c0-1.1,1-2,2.1-2s2.1,0.9,2.1,2H380.6z"/>
					
						<rect x="378" y="191.8" transform="matrix(-1 -1.224647e-16 1.224647e-16 -1 765.4967 385.4273)" class="st47" width="9.5" height="1.9"/>
					
						<rect x="376.2" y="201" transform="matrix(-1 -1.224647e-16 1.224647e-16 -1 765.3705 403.9699)" class="st47" width="13" height="1.9"/>
					<polygon class="st45" points="374.5,205 387.5,205 389.2,202.9 376.2,202.9 					"/>
					<polygon id="XMLID_644_" class="st44" points="379.2,198.7 386.4,198.7 385.6,201 380,201 					"/>
					<circle id="XMLID_645_" class="st48" cx="385.7" cy="198.8" r="1.1"/>
					<circle id="XMLID_646_" class="st48" cx="384.7" cy="197.8" r="0.9"/>
					<circle id="XMLID_647_" class="st48" cx="383.7" cy="198.8" r="1"/>
					<circle id="XMLID_648_" class="st48" cx="383.6" cy="197.1" r="0.8"/>
					<circle id="XMLID_649_" class="st48" cx="382" cy="198.7" r="0.9"/>
					<circle id="XMLID_650_" class="st48" cx="381.2" cy="198" r="0.6"/>
					<circle id="XMLID_651_" class="st48" cx="380.7" cy="198.7" r="0.6"/>
					<circle id="XMLID_652_" class="st48" cx="379.7" cy="198.1" r="1.1"/>
					<circle id="XMLID_653_" class="st48" cx="381.8" cy="197.7" r="1.1"/>
					<ellipse id="XMLID_654_" class="st48" cx="383.5" cy="198.1" rx="1.1" ry="1"/>
				</g>
				
					<rect x="368.5" y="205.4" transform="matrix(-1 -1.224647e-16 1.224647e-16 -1 782.7817 414.2774)" class="st43" width="45.8" height="3.5"/>
				
					<rect x="368.5" y="271.3" transform="matrix(-1 -1.224647e-16 1.224647e-16 -1 782.7817 546.2314)" class="st43" width="45.8" height="3.5"/>
				
					<rect x="371.4" y="310.7" transform="matrix(-1 -1.224647e-16 1.224647e-16 -1 783.1954 633.4798)" class="st32" width="40.4" height="12.1"/>
			</g>
			<polygon id="XMLID_655_" class="st32" points="368.8,206.2 332.4,206.2 329.7,224.3 371.5,224.3 			"/>
			<polygon id="XMLID_656_" class="st45" points="369.5,211 368.8,206.2 332.4,206.2 331.7,211 			"/>
			<rect x="327.5" y="224.3" class="st47" width="45.9" height="3.6"/>
			<rect x="332.4" y="203.7" class="st47" width="36.1" height="2.6"/>
			<rect x="329.7" y="227.9" class="st45" width="41.7" height="8.3"/>
		</g>
		<polygon class="st19" points="201.7,318.8 201.7,288.6 201.7,283.7 197.2,283.7 197.2,214.1 181.6,189.9 181.6,322.5 201.7,322.5 
					"/>
		<polygon class="st49" points="183.1,283.6 183.1,214 161.8,181.2 138,220 138,220 138,271.5 95.7,271.5 88.7,285.9 95.7,285.9 
			95.7,288.5 95.7,318.7 95.7,322.5 117.5,322.5 126.2,322.5 127.4,322.5 136,322.5 187.6,322.5 187.6,318.7 187.6,288.5 
			187.6,283.6 		"/>
		<g>
			<polygon class="st50" points="144.7,285.1 159.8,285.1 159.8,214.1 144.7,220.1 			"/>
			<g id="XMLID_657_">
				<rect id="XMLID_658_" x="161.8" y="217.3" class="st51" width="25.9" height="63.4"/>
				<rect id="XMLID_659_" x="161.8" y="288.6" class="st51" width="30.2" height="30.2"/>
			</g>
			<path id="XMLID_660_" class="st52" d="M159.8,214.1v71h30.1v-71H159.8z M182.1,225h3.6v3.6h-3.6V225z M182.1,231h3.6v3.6h-3.6
				V231z M167.5,258.7h-3.6v-3.6h3.6V258.7z M167.5,252.7h-3.6v-3.6h3.6V252.7z M167.5,246.7h-3.6v-3.6h3.6V246.7z M167.5,240.6
				h-3.6V237h3.6V240.6z M167.5,234.6h-3.6V231h3.6V234.6z M167.5,228.6h-3.6V225h3.6V228.6z M167.5,222.5h-3.6v-3.6h3.6V222.5z
				 M173.7,270.7H170v-3.6h3.6V270.7z M173.7,264.7H170v-3.6h3.6V264.7z M173.7,258.7H170v-3.6h3.6V258.7z M173.7,252.7H170v-3.6
				h3.6V252.7z M173.7,246.7H170v-3.6h3.6V246.7z M173.7,240.6H170V237h3.6V240.6z M173.7,234.6H170V231h3.6V234.6z M173.7,228.6
				H170V225h3.6V228.6z M173.7,222.5H170v-3.6h3.6V222.5z M175.9,225h3.6v3.6h-3.6V225z M179.6,276.8h-3.6v-3.6h3.6V276.8z
				 M179.6,270.7h-3.6v-3.6h3.6V270.7z M179.6,264.7h-3.6v-3.6h3.6V264.7z M179.6,258.7h-3.6v-3.6h3.6V258.7z M179.6,252.7h-3.6
				v-3.6h3.6V252.7z M179.6,246.7h-3.6v-3.6h3.6V246.7z M182.1,237h3.6v3.6h-3.6V237z M185.7,276.8h-3.6v-3.6h3.6V276.8z
				 M185.7,270.7h-3.6v-3.6h3.6V270.7z M185.7,258.7h-3.6v-3.6h3.6V258.7z M185.7,252.7h-3.6v-3.6h3.6V252.7z"/>
			<path id="XMLID_692_" class="st50" d="M102.5,283.7v38.9h91.9v-38.9H102.5z M175.7,315.2h-4.2V311h4.2V315.2z M175.7,308.2h-4.2
				v-4.2h4.2V308.2z M175.7,301.1h-4.2v-4.2h4.2V301.1z M175.7,294h-4.2v-4.2h4.2V294z M182.9,315.2h-4.2V311h4.2V315.2z
				 M182.9,308.2h-4.2v-4.2h4.2V308.2z M182.9,301.1h-4.2v-4.2h4.2V301.1z M182.9,294h-4.2v-4.2h4.2V294z M189.8,315.2h-4.2V311h4.2
				V315.2z M189.8,308.2h-4.2v-4.2h4.2V308.2z M189.8,301.1h-4.2v-4.2h4.2V301.1z M189.8,294h-4.2v-4.2h4.2V294z"/>
			<rect x="102.5" y="318.8" class="st53" width="91.9" height="3.8"/>
			<polygon id="XMLID_706_" class="st54" points="159.8,214.1 168.6,181.2 189.8,214.1 			"/>
			<polygon id="XMLID_707_" class="st55" points="168.6,181.2 144.7,220.1 159.8,214.1 			"/>
			<rect x="102.5" y="283.7" class="st56" width="91.9" height="4.9"/>
			<g id="XMLID_708_">
				<path class="st32" d="M142.8,302.7c0-5.1-4.1-9.3-9.3-9.3c-5.1,0-9.3,4.1-9.3,9.3v19.8h18.5V302.7z"/>
				<path id="XMLID_709_" class="st34" d="M133.5,293.5c-0.2,0-0.4,0-0.6,0v29h1.2v-29C134,293.5,133.8,293.5,133.5,293.5z"/>
			</g>
			<g id="XMLID_712_">
				<rect x="145.5" y="295.5" class="st51" width="13.5" height="13.5"/>
				<g>
					<path id="XMLID_714_" class="st53" d="M158,296.5V308h-11.5v-11.5H158 M159,295.5h-13.5V309H159V295.5L159,295.5z"/>
				</g>
				<line id="XMLID_713_" class="st57" x1="146.3" y1="302.2" x2="158.2" y2="302.2"/>
				<line id="XMLID_717_" class="st57" x1="152.2" y1="296.4" x2="152.3" y2="308"/>
				<polygon id="XMLID_718_" class="st56" points="161.4,310.7 147.9,310.7 145.5,309 159,309 				"/>
			</g>
			<rect x="159.8" y="214.1" class="st56" width="4.8" height="108.5"/>
			<g id="XMLID_719_">
				<rect x="107.2" y="295.5" class="st51" width="13.5" height="13.5"/>
				<g>
					<path id="XMLID_721_" class="st53" d="M119.7,296.5V308h-11.5v-11.5H119.7 M120.7,295.5h-13.5V309h13.5V295.5L120.7,295.5z"/>
				</g>
				<line id="XMLID_720_" class="st57" x1="108" y1="302.2" x2="119.9" y2="302.2"/>
				<line id="XMLID_724_" class="st57" x1="114" y1="296.5" x2="114" y2="308"/>
				<polygon id="XMLID_725_" class="st56" points="123.1,310.7 109.6,310.7 107.2,309 120.7,309 				"/>
			</g>
			<polygon id="XMLID_726_" class="st54" points="159.8,271.6 102.5,271.6 95.4,286 166.8,286 			"/>
		</g>
		<path class="st58" d="M801.9,341.3"/>
		<path class="st58" d="M1.9,341.3"/>
		<g>
			<rect x="685.7" y="246.2" class="st59" width="56.4" height="75.6"/>
			<rect x="685.7" y="246.2" class="st60" width="56.4" height="6.5"/>
			<g id="XMLID_727_">
				<rect x="697.9" y="261.1" class="st61" width="32.1" height="15.9"/>
				<polygon id="XMLID_728_" class="st62" points="726,261.8 726,273.1 697.9,273.1 697.9,277 730,277 730,261.8 				"/>
				<rect x="697.9" y="261.1" class="st63" width="32.1" height="15.9"/>
				<g id="XMLID_729_">
					<line id="XMLID_730_" class="st63" x1="708.3" y1="261.1" x2="708.3" y2="277"/>
					<line id="XMLID_731_" class="st63" x1="719.6" y1="261.1" x2="719.6" y2="277"/>
				</g>
				<rect x="695.8" y="277.6" class="st64" width="36.2" height="3"/>
			</g>
			<g id="XMLID_732_">
				<rect x="697.9" y="290.3" class="st61" width="32.1" height="15.9"/>
				<polygon id="XMLID_733_" class="st62" points="726,291 726,302.2 697.9,302.2 697.9,306.2 730,306.2 730,291 				"/>
				<rect x="697.9" y="290.3" class="st63" width="32.1" height="15.9"/>
				<g id="XMLID_734_">
					<line id="XMLID_735_" class="st63" x1="708.3" y1="290.3" x2="708.3" y2="306.2"/>
					<line id="XMLID_736_" class="st63" x1="719.6" y1="290.3" x2="719.6" y2="306.2"/>
				</g>
				<rect x="695.8" y="306.8" class="st64" width="36.2" height="3"/>
			</g>
			<line id="XMLID_737_" class="st65" x1="685.7" y1="246.2" x2="742.2" y2="246.2"/>
			<polygon id="XMLID_738_" class="st60" points="736.2,285.4 700,285.4 695.8,280.6 732,280.6 			"/>
			<polygon id="XMLID_739_" class="st60" points="736.2,314.6 700,314.6 695.8,309.8 732,309.8 			"/>
		</g>
		<g>
			<ellipse id="XMLID_740_" class="st66" cx="745.2" cy="286.9" rx="12.6" ry="18.3"/>
			<path class="st67" d="M747,322.6h-3.8V295c0-1,0.8-1.9,1.9-1.9c1,0,1.9,0.8,1.9,1.9V322.6z"/>
		</g>
		<g>
			<ellipse id="XMLID_741_" class="st66" cx="789.3" cy="286.5" rx="12.6" ry="18.3"/>
			<path class="st67" d="M791.2,322.1h-3.8v-27.6c0-1,0.8-1.9,1.9-1.9s1.9,0.8,1.9,1.9V322.1z"/>
		</g>
		<path class="st2" d="M107.8,297.6c0-7.1-4-12.9-8.9-12.9c-4.9,0-8.9,5.8-8.9,12.9c0,6.5,3.3,11.8,7.6,12.7v12.4h2.7v-12.4
			C104.5,309.4,107.8,304,107.8,297.6z"/>
		<g>
			<ellipse id="XMLID_744_" class="st68" cx="96.6" cy="297.1" rx="8.9" ry="12.9"/>
			<path class="st32" d="M97.9,322.2h-2.7v-19.4c0-0.7,0.6-1.3,1.3-1.3c0.7,0,1.3,0.6,1.3,1.3V322.2z"/>
		</g>
		<g>
			<circle id="XMLID_747_" class="st68" cx="425.4" cy="292" r="13.6"/>
			<g id="XMLID_750_">
				<path class="st32" d="M427.4,322.7h-3.8v-27.6c0-1,0.8-1.9,1.9-1.9c1,0,1.9,0.8,1.9,1.9V322.7z"/>
			</g>
		</g>
		<g>
			<circle id="XMLID_751_" class="st68" cx="566.1" cy="291.8" r="13.6"/>
			<g id="XMLID_754_">
				<path class="st32" d="M568.1,322.5h-3.8v-27.6c0-1,0.8-1.9,1.9-1.9s1.9,0.8,1.9,1.9V322.5z"/>
			</g>
		</g>
		<g>
			<circle id="XMLID_755_" class="st68" cx="764.4" cy="291.8" r="13.6"/>
			<g id="XMLID_758_">
				<path class="st32" d="M766.4,322.5h-3.8v-27.6c0-1,0.8-1.9,1.9-1.9c1,0,1.9,0.8,1.9,1.9V322.5z"/>
			</g>
		</g>
		<g>
			<circle id="XMLID_759_" class="st68" cx="727.1" cy="301.5" r="9.3"/>
			<g id="XMLID_762_">
				<path class="st32" d="M728.5,322.5h-2.6v-18.9c0-0.7,0.6-1.3,1.3-1.3c0.7,0,1.3,0.6,1.3,1.3V322.5z"/>
			</g>
		</g>
		<g>
			<circle id="XMLID_763_" class="st68" cx="775.8" cy="301.6" r="9.3"/>
			<g id="XMLID_766_">
				<path class="st32" d="M777.2,322.6h-2.6v-18.9c0-0.7,0.6-1.3,1.3-1.3c0.7,0,1.3,0.6,1.3,1.3V322.6z"/>
			</g>
		</g>
		<g>
			<ellipse id="XMLID_767_" class="st66" cx="29.3" cy="287" rx="12.6" ry="18.3"/>
			<path class="st67" d="M31.2,322.6h-3.8V295c0-1,0.8-1.9,1.9-1.9s1.9,0.8,1.9,1.9V322.6z"/>
		</g>
		<g>
			<ellipse id="XMLID_770_" class="st66" cx="73.4" cy="286.5" rx="12.6" ry="18.3"/>
			<path class="st67" d="M75.3,322.2h-3.8v-27.6c0-1,0.8-1.9,1.9-1.9s1.9,0.8,1.9,1.9V322.2z"/>
		</g>
		<g>
			<circle id="XMLID_773_" class="st68" cx="48.5" cy="291.9" r="13.6"/>
			<g id="XMLID_776_">
				<path class="st32" d="M50.5,322.6h-3.8v-27.6c0-1,0.8-1.9,1.9-1.9s1.9,0.8,1.9,1.9V322.6z"/>
			</g>
		</g>
		<g>
			<circle id="XMLID_777_" class="st68" cx="11.2" cy="301.6" r="9.3"/>
			<g id="XMLID_780_">
				<path class="st32" d="M12.6,322.6H10v-18.9c0-0.7,0.6-1.3,1.3-1.3s1.3,0.6,1.3,1.3V322.6z"/>
			</g>
		</g>
		<g>
			<circle id="XMLID_781_" class="st68" cx="82.7" cy="301.6" r="9.3"/>
			<g id="XMLID_784_">
				<path class="st32" d="M84.1,322.6h-2.6v-18.9c0-0.7,0.6-1.3,1.3-1.3c0.7,0,1.3,0.6,1.3,1.3V322.6z"/>
			</g>
		</g>
		<path class="st68" d="M373.5,311.8c0,3.6-1.8,6.5-4,6.5c-2.2,0-4-2.9-4-6.5c0-3.6,1.8-10.6,4-10.6
			C371.7,301.3,373.5,308.2,373.5,311.8z"/>
		<polygon class="st38" points="372.6,322.4 366.3,322.4 365.6,316.1 373.4,316.1 		"/>
		<path class="st68" d="M335,311.8c0,3.6-1.8,6.5-4,6.5s-4-2.9-4-6.5c0-3.6,1.8-10.6,4-10.6S335,308.2,335,311.8z"/>
		<polygon class="st38" points="334.1,322.4 327.8,322.4 327,316.1 334.8,316.1 		"/>
		<g>
			<polygon class="st69" points="240.5,322.1 214.1,322.1 214.1,289.3 240.5,278.4 			"/>
			<line class="st70" x1="214.1" y1="289.3" x2="240.5" y2="278.4"/>
			<rect x="240.5" y="256.4" class="st71" width="49.1" height="65.8"/>
			<rect x="240.5" y="256.4" class="st60" width="49.1" height="5.6"/>
			<g id="XMLID_785_">
				<rect x="251.1" y="269.3" class="st72" width="27.9" height="13.8"/>
				<polygon id="XMLID_788_" class="st62" points="275.5,269.9 275.5,279.7 251.1,279.7 251.1,283.1 279,283.1 279,269.9 				"/>
				<rect x="251.1" y="269.3" class="st63" width="27.9" height="13.8"/>
				<g id="XMLID_789_">
					<line id="XMLID_790_" class="st63" x1="260.2" y1="269.3" x2="260.2" y2="283.1"/>
					<line id="XMLID_791_" class="st63" x1="269.9" y1="269.3" x2="269.9" y2="283.1"/>
				</g>
				<rect x="249.3" y="283.6" class="st73" width="31.5" height="2.6"/>
			</g>
			<g id="XMLID_792_">
				<rect x="251.1" y="294.7" class="st72" width="27.9" height="13.8"/>
				<polygon id="XMLID_793_" class="st62" points="275.5,295.3 275.5,305 251.1,305 251.1,308.5 279,308.5 279,295.3 				"/>
				<rect x="251.1" y="294.7" class="st63" width="27.9" height="13.8"/>
				<g id="XMLID_794_">
					<line id="XMLID_795_" class="st63" x1="260.2" y1="294.7" x2="260.2" y2="308.5"/>
					<line id="XMLID_796_" class="st63" x1="269.9" y1="294.7" x2="269.9" y2="308.5"/>
				</g>
				<rect x="249.3" y="309" class="st73" width="31.5" height="2.6"/>
			</g>
			<line id="XMLID_797_" class="st74" x1="240.5" y1="256.4" x2="289.6" y2="256.4"/>
			<polygon id="XMLID_798_" class="st60" points="284.4,290.5 252.9,290.5 249.3,286.2 280.8,286.2 			"/>
			<polygon id="XMLID_799_" class="st60" points="284.4,315.8 252.9,315.8 249.3,311.6 280.8,311.6 			"/>
			<rect x="221.4" y="294.4" class="st72" width="11.8" height="11.8"/>
			<polygon id="XMLID_800_" class="st62" points="230.2,294.4 230.2,303.2 221.4,303.2 221.4,306.2 233.2,306.2 233.2,294.4 			"/>
			<rect x="221.4" y="294.4" class="st63" width="11.8" height="11.8"/>
		</g>
		<g>
			<ellipse id="XMLID_801_" class="st68" cx="201.7" cy="286.9" rx="12.6" ry="18.3"/>
			<path class="st32" d="M203.6,322.5h-3.8v-27.6c0-1,0.8-1.9,1.9-1.9c1,0,1.9,0.8,1.9,1.9V322.5z"/>
		</g>
		<g>
			<rect x="629.7" y="273.3" class="st75" width="68" height="49"/>
			<line id="XMLID_802_" class="st76" x1="629.7" y1="273.3" x2="697.7" y2="273.3"/>
			<line id="XMLID_805_" class="st77" x1="629.7" y1="259.3" x2="697.7" y2="259.3"/>
			<rect x="637" y="297.8" class="st78" width="31.8" height="24.5"/>
			<g id="XMLID_806_">
				<rect x="677.4" y="282.4" class="st72" width="11.8" height="11.8"/>
				<polygon id="XMLID_807_" class="st62" points="686.2,282.4 686.2,291.1 677.4,291.1 677.4,294.1 689.2,294.1 689.2,282.4 				
					"/>
				<rect x="677.4" y="282.4" class="st63" width="11.8" height="11.8"/>
			</g>
			<g id="XMLID_808_">
				<rect x="657.4" y="282.4" class="st72" width="11.8" height="11.8"/>
				<polygon id="XMLID_809_" class="st62" points="666.2,282.4 666.2,291.1 657.4,291.1 657.4,294.1 669.2,294.1 669.2,282.4 				
					"/>
				<rect x="657.4" y="282.4" class="st63" width="11.8" height="11.8"/>
			</g>
			<g id="XMLID_810_">
				<rect x="637.4" y="282.4" class="st72" width="11.8" height="11.8"/>
				<polygon id="XMLID_811_" class="st62" points="646.2,282.4 646.2,291.1 637.4,291.1 637.4,294.1 649.2,294.1 649.2,282.4 				
					"/>
				<rect x="637.4" y="282.4" class="st63" width="11.8" height="11.8"/>
			</g>
			<g id="XMLID_812_">
				<rect x="677.4" y="303" class="st72" width="11.8" height="11.8"/>
				<polygon id="XMLID_813_" class="st62" points="686.2,303 686.2,311.8 677.4,311.8 677.4,314.8 689.2,314.8 689.2,303 				"/>
				<rect x="677.4" y="303" class="st63" width="11.8" height="11.8"/>
			</g>
			<rect x="644.9" y="300.3" class="st22" width="16.9" height="22"/>
			<rect x="646.6" y="301.6" class="st79" width="13.6" height="20.6"/>
			<circle id="XMLID_814_" class="st22" cx="648.8" cy="313" r="1.1"/>
			<g id="XMLID_815_">
				<line id="XMLID_816_" class="st80" x1="661.7" y1="259.3" x2="661.7" y2="273.3"/>
				<line id="XMLID_817_" class="st80" x1="657.7" y1="259.3" x2="657.7" y2="273.3"/>
				<line id="XMLID_818_" class="st80" x1="653.7" y1="259.3" x2="653.7" y2="273.3"/>
				<line id="XMLID_819_" class="st80" x1="649.7" y1="259.3" x2="649.7" y2="273.3"/>
				<line id="XMLID_820_" class="st80" x1="645.7" y1="259.3" x2="645.7" y2="273.3"/>
				<line id="XMLID_821_" class="st80" x1="641.7" y1="259.3" x2="641.7" y2="273.3"/>
				<line id="XMLID_822_" class="st80" x1="637.7" y1="259.3" x2="637.7" y2="273.3"/>
				<line id="XMLID_823_" class="st80" x1="633.7" y1="259.3" x2="633.7" y2="273.3"/>
				<line id="XMLID_824_" class="st80" x1="629.7" y1="259.3" x2="629.7" y2="273.3"/>
				<line id="XMLID_825_" class="st80" x1="697.7" y1="259.3" x2="697.7" y2="273.3"/>
				<line id="XMLID_826_" class="st80" x1="693.7" y1="259.3" x2="693.7" y2="273.3"/>
				<line id="XMLID_827_" class="st80" x1="689.7" y1="259.3" x2="689.7" y2="273.3"/>
				<line id="XMLID_828_" class="st80" x1="685.7" y1="259.3" x2="685.7" y2="273.3"/>
				<line id="XMLID_829_" class="st80" x1="681.7" y1="259.3" x2="681.7" y2="273.3"/>
				<line id="XMLID_830_" class="st80" x1="677.7" y1="259.3" x2="677.7" y2="273.3"/>
				<line id="XMLID_831_" class="st80" x1="673.7" y1="259.3" x2="673.7" y2="273.3"/>
				<line id="XMLID_832_" class="st80" x1="669.7" y1="259.3" x2="669.7" y2="273.3"/>
				<line id="XMLID_833_" class="st80" x1="665.7" y1="259.3" x2="665.7" y2="273.3"/>
			</g>
		</g>
	</g>
</g>
</svg>
